<?xml version="1.0" encoding="utf-8"?>
<!-- Generator: Adobe Illustrator 24.1.2, SVG Export Plug-In . SVG Version: 6.00 Build 0)  -->
<svg version="1.1" id="Layer_1" xmlns="http://www.w3.org/2000/svg" xmlns:xlink="http://www.w3.org/1999/xlink" x="0px" y="0px"
	 viewBox="0 0 15.07 15.52" style="enable-background:new 0 0 15.07 15.52;" xml:space="preserve">
<style type="text/css">
	.st0{fill:#FFFFFF;}
	.st1{fill:#F5F4F5;}
	.st2{opacity:0.4;fill:#3065AE;enable-background:new    ;}
	.st3{fill:#010202;}
	.st4{fill:#F5F4F5;fill-opacity:0;}
	.st5{fill:#070808;stroke:#070808;stroke-width:0.25;}
	.st6{fill:#010202;stroke:#010202;stroke-width:0.5;}
	.st7{fill:#010202;stroke:#010202;stroke-width:0.25;}
	.st8{fill:#010202;stroke:#010202;stroke-width:0.15;}
	.st9{fill:none;stroke:#EEEEEE;}
	.st10{fill:#FDC309;}
	.st11{enable-background:new    ;}
	.st12{fill:#070808;}
</style>
<g class="st11">
	<path class="st12" d="M11.72,10.85c0.59,0,1.13,0.15,1.64,0.44s0.91,0.69,1.2,1.2S15,13.55,15,14.14v0.7c0,0.2-0.07,0.36-0.21,0.5
		s-0.3,0.21-0.5,0.21H0.7c-0.2,0-0.36-0.07-0.5-0.21S0,15.03,0,14.84v-0.7c0-0.59,0.15-1.13,0.44-1.64s0.69-0.91,1.2-1.2
		s1.05-0.44,1.64-0.44h0.85c1.04,0.62,2.16,0.94,3.37,0.94s2.33-0.31,3.37-0.94H11.72z M2.81,5.23c0,0.84,0.21,1.62,0.63,2.34
		s0.99,1.29,1.71,1.71s1.5,0.63,2.34,0.63s1.62-0.21,2.34-0.63s1.29-0.99,1.71-1.71s0.63-1.5,0.63-2.34s-0.21-1.62-0.63-2.34
		s-0.99-1.29-1.71-1.71S8.34,0.54,7.5,0.54S5.88,0.75,5.16,1.17S3.86,2.16,3.44,2.89S2.81,4.39,2.81,5.23z"/>
</g>
</svg>
