<svg width="13" height="9" viewBox="0 0 13 9" fill="none" xmlns="http://www.w3.org/2000/svg">
<path d="M8.44555 0.921875C8.49997 0.867188 8.55438 0.8125 8.66322 0.8125C8.74485 0.8125 8.82648 0.867188 8.88089 0.921875L12.4725 4.53125C12.5269 4.58594 12.5814 4.66797 12.5814 4.75C12.5814 4.85938 12.5269 4.91406 12.4725 4.96875L8.88089 8.57812C8.82648 8.66016 8.74485 8.6875 8.66322 8.6875C8.55438 8.6875 8.49997 8.66016 8.44555 8.57812L7.90136 8.05859C7.81973 8.00391 7.79252 7.92188 7.79252 7.8125C7.79252 7.73047 7.81973 7.64844 7.90136 7.59375L10.1053 5.46094H0.718113C0.609276 5.46094 0.527648 5.43359 0.473229 5.37891C0.418811 5.32422 0.391602 5.24219 0.391602 5.13281V4.36719C0.391602 4.28516 0.418811 4.20312 0.473229 4.14844C0.527648 4.09375 0.609276 4.03906 0.718113 4.03906H10.1053L7.90136 1.90625C7.81973 1.85156 7.79252 1.79688 7.79252 1.6875C7.79252 1.60547 7.81973 1.52344 7.90136 1.44141L8.44555 0.921875Z" fill="black"/>
</svg>
