<svg xmlns="http://www.w3.org/2000/svg" width="17.783" height="22.25" viewBox="0 0 17.783 22.25"><defs><style>.a,.b{fill:#080808;stroke:#080808;}.a{stroke-width:0.25px;}.b{stroke-width:0.5px;}</style></defs><g transform="translate(-3563.875 18137.125)"><path class="a" d="M24.184,19.594H22.122V.344A.344.344,0,0,0,21.778,0H7.34A.344.344,0,0,0,7,.344V19.937a.344.344,0,0,0,0,.069C7.134,20.694,7.743,22,9.059,22H21.778c2.719,0,2.75-2.042,2.75-2.062A.344.344,0,0,0,24.184,19.594ZM9.059,21.312c-1,0-1.327-1.2-1.375-1.413V2.406H20.5V1.719H7.684V.687h13.75V19.594H10.778a.344.344,0,0,0-.344.275S10.139,21.312,9.059,21.312Zm12.719,0h-11.3a3.022,3.022,0,0,0,.56-1.031H23.761C23.627,20.69,23.18,21.312,21.778,21.312Z" transform="translate(3557.005 -18137)"/><path class="b" d="M28.8,13.441a2.923,2.923,0,0,1-1.749.618v1.4h-.9V14.036a2.961,2.961,0,0,1-1.688-.662,2.471,2.471,0,0,1-.825-1.816l.934-.082a1.59,1.59,0,0,0,.69,1.3,2.7,2.7,0,0,0,1.508.409,2.383,2.383,0,0,0,1.338-.339,1.058,1.058,0,0,0,.511-.924.933.933,0,0,0-.534-.888,7.685,7.685,0,0,0-1.788-.551,4.05,4.05,0,0,1-1.811-.763,1.635,1.635,0,0,1-.553-1.28,1.842,1.842,0,0,1,.7-1.477,2.677,2.677,0,0,1,1.518-.558V5h.9V6.412a2.919,2.919,0,0,1,1.48.55,2.084,2.084,0,0,1,.8,1.652l-.944.077a1.453,1.453,0,0,0-.513-1.069,2.032,2.032,0,0,0-1.294-.358,2.4,2.4,0,0,0-1.238.291.909.909,0,0,0-.477.827.8.8,0,0,0,.365.718,4.587,4.587,0,0,0,1.409.47,12.4,12.4,0,0,1,1.508.416,2.527,2.527,0,0,1,1.008.657,1.7,1.7,0,0,1,.416,1.205A1.986,1.986,0,0,1,28.8,13.441Z" transform="translate(3545.405 -18136.066)"/></g></svg>