<?xml version="1.0" encoding="utf-8"?>
<!-- Generator: Adobe Illustrator 24.1.2, SVG Export Plug-In . SVG Version: 6.00 Build 0)  -->
<svg version="1.1" id="Layer_1" xmlns="http://www.w3.org/2000/svg" xmlns:xlink="http://www.w3.org/1999/xlink" x="0px" y="0px"
	 viewBox="0 0 14.65 16.69" style="enable-background:new 0 0 14.65 16.69;" xml:space="preserve">
<style type="text/css">
	.st0{fill:#FFFFFF;}
	.st1{fill:#F5F4F5;}
	.st2{opacity:0.4;fill:#3065AE;enable-background:new    ;}
	.st3{fill:#010202;}
	.st4{fill:#F5F4F5;fill-opacity:0;}
	.st5{fill:#070808;stroke:#070808;stroke-width:0.25;}
	.st6{fill:#010202;stroke:#010202;stroke-width:0.5;}
	.st7{fill:#010202;stroke:#010202;stroke-width:0.25;}
	.st8{fill:#010202;stroke:#010202;stroke-width:0.15;}
	.st9{fill:none;stroke:#EEEEEE;}
	.st10{fill:#FDC309;}
	.st11{enable-background:new    ;}
	.st12{fill:#070808;}
</style>
<g id="Group_18914_1_" transform="translate(22.996 14.451)">
	<g id="Path_5885_1_">
		<path class="st3" d="M-18.48-0.2v0.04c0.02-0.01,0.04-0.03,0.05-0.04H-18.48z"/>
		<path class="st3" d="M-18.47-0.2l-0.01,0.03v0.01c0.02-0.01,0.04-0.03,0.05-0.04H-18.47z"/>
	</g>
	<g id="Path_5886_1_">
		<path class="st3" d="M-18.48-0.2v0.04c0.02-0.01,0.04-0.03,0.05-0.04H-18.48z"/>
		<path class="st3" d="M-8.46-10.53l-1.69-2.56c-0.12-0.16-0.3-0.26-0.51-0.26h-7.97c-0.2,0-0.39,0.1-0.51,0.27l-1.72,2.6
			l-0.02,4.64h0.73v-4.12h4.06v1.64c0,0.1,0.03,0.2,0.1,0.27c0.07,0.07,0.16,0.1,0.27,0.11h2.17c0.2,0,0.37-0.17,0.37-0.37v-1.65
			h4.06v9.51h-8.52c0.59-0.94,0.88-2.27,0.88-3.97v-0.19c0-0.2-0.17-0.36-0.37-0.36h-0.01l-0.09,0.01l-0.05,0.03
			c-0.8,0.39-1.75,0.14-2.26-0.6c-0.14-0.18-0.43-0.19-0.58,0.01c-0.5,0.72-1.47,0.97-2.27,0.58c-0.09-0.04-0.19-0.04-0.28,0
			c-0.09,0.04-0.16,0.11-0.2,0.21l-0.02,0.12c-0.07,3.23,0.93,5.16,2.99,5.75h0.12l0.05-0.01c0.58-0.16,1.08-0.44,1.49-0.84h9.23
			c0.16,0,0.32-0.07,0.43-0.19C-8.46-0.01-8.4-0.17-8.4-0.33v-10.01C-8.4-10.4-8.42-10.47-8.46-10.53z M-16.1-10.7h-3.74l1.28-1.92
			h2.46V-10.7z M-13.92-8.68h-1.45v-1.28h1.45V-8.68z M-13.92-10.7h-1.45v-1.92h1.45V-10.7z M-13.19-10.7v-1.92h2.46l1.28,1.92
			H-13.19z M-18.43-0.2c-0.01,0.01-0.03,0.03-0.05,0.04V-0.2H-18.43z M-22.17-4.09c0.84,0.2,1.73-0.05,2.34-0.66
			c0.61,0.61,1.5,0.86,2.34,0.66c0,0.07-0.01,0.14-0.01,0.21l-4.49,1.47C-22.1-2.96-22.16-3.53-22.17-4.09z M-21.49-0.99
			c-0.13-0.23-0.23-0.47-0.32-0.71l4.25-1.39c-0.03,0.29-0.08,0.57-0.15,0.86L-21.49-0.99z M-19.83,0.4
			c-0.47-0.15-0.89-0.42-1.22-0.77l3.1-1.02C-18.29-0.55-18.97,0.11-19.83,0.4z"/>
	</g>
</g>
</svg>
