<svg xmlns="http://www.w3.org/2000/svg" width="19.013" height="18.263" viewBox="0 0 19.013 18.263"><defs><style>.a{fill:#c91a13;stroke:#c91a13;stroke-width:0.25px;}</style></defs><g transform="translate(-1.875 -17.875)"><g transform="translate(2 18)"><path class="a" d="M336.191,317.985a.375.375,0,0,0-.531,0l-.822.822-.822-.822a.376.376,0,0,0-.531.531l.822.822-.822.822a.375.375,0,0,0,0,.531.37.37,0,0,0,.268.109.386.386,0,0,0,.268-.109l.822-.822.822.822a.37.37,0,0,0,.268.109.386.386,0,0,0,.268-.109.375.375,0,0,0,0-.531l-.822-.822.822-.822A.382.382,0,0,0,336.191,317.985Z" transform="translate(-321.175 -306.53)"/><path class="a" d="M51.937,310.377A.378.378,0,0,0,51.56,310H47.377a.378.378,0,0,0-.377.377v2.337a.378.378,0,0,0,.377.377H51.56a.378.378,0,0,0,.377-.377Zm-.754,2h-3.43v-1.621h3.43Z" transform="translate(-45.304 -298.952)"/><path class="a" d="M17.445,25.933V23a.384.384,0,0,0-.03-.144L15.841,18.9A1.405,1.405,0,0,0,14.53,18h-9.6a1.4,1.4,0,0,0-1.312.9L2.033,22.862A.369.369,0,0,0,2,23v9.271a1.451,1.451,0,0,0,1.43,1.456h8.04a5.1,5.1,0,0,0,4.209,2.284,5.151,5.151,0,0,0,5.084-5.2A5.235,5.235,0,0,0,17.445,25.933Zm-2.291-6.757,1.371,3.437H11.962l-.584-3.857h3.148A.666.666,0,0,1,15.154,19.176ZM8.06,23.369h3.215v1.709L8.06,26.371Zm.063-.756.613-3.857h1.892l.584,3.857ZM4.3,19.176a.666.666,0,0,1,.628-.42H7.99l-.613,3.857H2.931Zm-.868,13.8a.7.7,0,0,1-.691-.7v-8.9H7.321v3.558a.372.372,0,0,0,.369.378.352.352,0,0,0,.137-.026l3.954-1.588a.378.378,0,0,0,.233-.352v-1.97h4.693v2.344a4.859,4.859,0,0,0-1.027-.106,5.154,5.154,0,0,0-5.084,5.2,5.342,5.342,0,0,0,.458,2.159H3.43Zm12.245,2.28a4.444,4.444,0,1,1,4.342-4.443A4.4,4.4,0,0,1,15.675,35.253Z" transform="translate(-2 -18)"/></g></g></svg>