<svg xmlns="http://www.w3.org/2000/svg" viewBox="0 0 100 100"><g id="Layer_1" data-name="Layer 1"><path d="M51.5,9.68V5.38A3,3,0,0,0,50,2.88a2.76,2.76,0,0,0-2.9.1l-13.3,8.3a3,3,0,0,0-1.4,2.4,2.69,2.69,0,0,0,1.4,2.4l13.3,8.3a2.82,2.82,0,0,0,1.5.4,2.3,2.3,0,0,0,1.4-.4,3,3,0,0,0,1.5-2.5v-3.6a35.22,35.22,0,1,1-26.2,10,4.31,4.31,0,1,0-6-6.2A44,44,0,1,0,51.5,9.68Z"/><path d="M52.3,30.48H47.7a1.58,1.58,0,0,0-1.6,1.6v4a11.58,11.58,0,0,0-9.4,12.6,12,12,0,0,0,12.1,10.5h3a3.72,3.72,0,0,1,2.8,1.3,3.81,3.81,0,0,1-3.1,6.4h-4A2.55,2.55,0,0,1,45.1,65a1.62,1.62,0,0,0-1.6-1.2H38.9a1.66,1.66,0,0,0-1.2.5,1.75,1.75,0,0,0-.4,1.2,10.21,10.21,0,0,0,8.9,9.1v3.9a1.58,1.58,0,0,0,1.6,1.6h4.6a1.58,1.58,0,0,0,1.6-1.6v-4.1a11.77,11.77,0,0,0,9.4-10.2,11.54,11.54,0,0,0-3-9,11.66,11.66,0,0,0-8.6-3.8H48.3a3.72,3.72,0,0,1-2.8-1.3,3.81,3.81,0,0,1,3.1-6.4h4a2.55,2.55,0,0,1,2.4,1.9,1.62,1.62,0,0,0,1.6,1.2h4.6a1.66,1.66,0,0,0,1.2-.5,1.75,1.75,0,0,0,.4-1.2A10.21,10.21,0,0,0,53.9,36v-3.9A1.58,1.58,0,0,0,52.3,30.48ZM37.9,65.38Z"/></g></svg>