<svg xmlns="http://www.w3.org/2000/svg" width="20.454" height="20.454" viewBox="0 0 20.454 20.454"><defs><style>.a{fill:#040405;}</style></defs><g transform="translate(-0.016 -0.788)"><path class="a" d="M14.23,14.977a.307.307,0,0,1-.43,0l-3.266-3.266a.746.746,0,0,1-.277.052A.762.762,0,0,1,9.952,10.3V3.826a.305.305,0,0,1,.61,0V10.3a.767.767,0,0,1,.457.7.7.7,0,0,1-.055.277l3.266,3.266A.307.307,0,0,1,14.23,14.977Z"/><path class="a" d="M10.243,21.242A10.226,10.226,0,0,1,3,3.794,10.156,10.156,0,0,1,10.229.788h.014a10.192,10.192,0,0,1,9.068,5.5.3.3,0,0,1-.367.43L15.285,5.483a.305.305,0,0,1-.145-.474l1.135-1.49A9.589,9.589,0,0,0,10.243,1.4H10.23A9.617,9.617,0,0,0,3.452,17.825a9.553,9.553,0,0,0,6.791,2.807h.014A9.616,9.616,0,0,0,19.86,11a.306.306,0,0,1,.305-.306h0a.306.306,0,0,1,.3.305A10.227,10.227,0,0,1,10.257,21.242Zm5.639-16.2,2.494.841a9.6,9.6,0,0,0-1.638-1.965Z"/></g></svg>