<svg xmlns="http://www.w3.org/2000/svg" width="20.201" height="22.39" viewBox="0 0 20.201 22.39"><defs><style>.a{fill:#040506;stroke:rgba(0,0,0,0);stroke-miterlimit:10;}</style></defs><g transform="translate(-0.322 0.502)"><path class="a" d="M-2414.178-1226.2a9.606,9.606,0,0,1,.8-3.85,9.6,9.6,0,0,1,12.642-4.949l-.93-2.374c-.007-.015-.012-.03-.018-.045a.442.442,0,0,1,.281-.556.44.44,0,0,1,.555.281l1.315,3.348a.6.6,0,0,1,.05.077h0a.519.519,0,0,1-.217.7l-3.556,1.393-.021.007a.439.439,0,0,1-.552-.256.439.439,0,0,1,.252-.569l2.748-1.077a8.744,8.744,0,0,0-6.89-.274,8.742,8.742,0,0,0-5.04,11.29,8.741,8.741,0,0,0,11.29,5.041,8.742,8.742,0,0,0,5.041-11.29l-.012-.034a.44.44,0,0,1,.275-.553.44.44,0,0,1,.559.274,9.611,9.611,0,0,1,.625,3.4,9.6,9.6,0,0,1-9.592,9.609h-.008A9.6,9.6,0,0,1-2414.178-1226.2Zm11.776,2.785-.022-.023-2.154-2.142-2.15,2.152a.444.444,0,0,1-.627,0,.443.443,0,0,1,0-.628l2.151-2.151-2.151-2.15a.441.441,0,0,1,.017-.623.44.44,0,0,1,.606,0l2.153,2.16,2.151-2.151a.44.44,0,0,1,.622.017.439.439,0,0,1,0,.6v0l-2.154,2.152,2.154,2.142a.44.44,0,0,1,.023.622.441.441,0,0,1-.323.141A.437.437,0,0,1-2402.4-1223.419Z" transform="translate(2415 1238)"/></g></svg>