<?xml version="1.0" encoding="utf-8"?>
<!-- Generator: Adobe Illustrator 24.1.2, SVG Export Plug-In . SVG Version: 6.00 Build 0)  -->
<svg version="1.1" id="Layer_1" xmlns="http://www.w3.org/2000/svg" xmlns:xlink="http://www.w3.org/1999/xlink" x="0px" y="0px"
	 viewBox="0 0 17.25 15.32" style="enable-background:new 0 0 17.25 15.32;" xml:space="preserve">
<style type="text/css">
	.st0{fill:#FFFFFF;}
	.st1{fill:#F5F4F5;}
	.st2{opacity:0.4;fill:#3065AE;enable-background:new    ;}
	.st3{fill:#010202;}
	.st4{fill:#F5F4F5;fill-opacity:0;}
	.st5{fill:#070808;stroke:#070808;stroke-width:0.25;}
	.st6{fill:#010202;stroke:#010202;stroke-width:0.5;}
	.st7{fill:#010202;stroke:#010202;stroke-width:0.25;}
	.st8{fill:#010202;stroke:#010202;stroke-width:0.15;}
	.st9{fill:none;stroke:#EEEEEE;}
	.st10{fill:#FDC309;}
	.st11{enable-background:new    ;}
	.st12{fill:#070808;}
</style>
<g id="noun_customer_service_770878_1_" transform="translate(-91.443 -86.011)">
	<g id="Group_18953_1_" transform="translate(115.443 106.011)">
		<g id="Path_5937_1_">
			<path class="st3" d="M-12.33-8.86v1.7c0,0.43-0.34,0.78-0.77,0.78h-4.8l0.01-0.08c0.01-0.17,0.02-0.34,0.01-0.51v-0.08h4.78
				c0.05,0,0.1-0.05,0.1-0.11l0.01-2.24l0.12,0.1c0.16,0.13,0.33,0.28,0.51,0.41L-12.33-8.86z"/>
		</g>
		<g id="Path_5938_1_">
			<path class="st3" d="M-14.97-11.14L-18.28-9l-0.04-0.02l-4.96-3.22v5.09c0,0.06,0.05,0.11,0.11,0.11h0.34l-0.01,0.08
				c-0.02,0.16,0.01,0.33,0.06,0.48l0.04,0.1h-0.43c-0.43,0-0.77-0.35-0.77-0.77v-5.58c0-0.42,0.34-0.77,0.77-0.77h6.6l0.02,0.04
				c0.1,0.17,0.2,0.34,0.3,0.51l0.07,0.11h-6.79l4.69,3.05l2.89-1.88l0.05,0.06c0.07,0.1,0.15,0.21,0.24,0.31L-14.97-11.14z"/>
		</g>
		<g id="Path_5939_1_">
			<path class="st3" d="M-12.79-17.66l-1.32-1.57l-0.01-0.01c-0.02-0.06-0.08-0.09-0.14-0.09c-0.1,0.01-0.19,0.04-0.28,0.09
				l1.66,1.97c0,0,0,0,0.01,0C-12.76-17.37-12.73-17.53-12.79-17.66z M-12.88-17.38l-1.54-1.83c0.05-0.02,0.11-0.04,0.16-0.04
				c0.03,0,0.06,0.01,0.08,0.04l1.32,1.58C-12.82-17.55-12.83-17.46-12.88-17.38z M-12.79-17.66l-1.32-1.57l-0.01-0.01
				c-0.02-0.06-0.08-0.09-0.14-0.09c-0.1,0.01-0.19,0.04-0.28,0.09l1.66,1.97c0,0,0,0,0.01,0C-12.76-17.37-12.73-17.53-12.79-17.66z
				 M-12.88-17.38l-1.54-1.83c0.05-0.02,0.11-0.04,0.16-0.04c0.03,0,0.06,0.01,0.08,0.04l1.32,1.58
				C-12.82-17.55-12.83-17.46-12.88-17.38z M-12.79-17.66l-1.32-1.57l-0.01-0.01c-0.02-0.06-0.08-0.09-0.14-0.09
				c-0.1,0.01-0.19,0.04-0.28,0.09l1.66,1.97c0,0,0,0,0.01,0C-12.76-17.37-12.73-17.53-12.79-17.66z M-12.88-17.38l-1.54-1.83
				c0.05-0.02,0.11-0.04,0.16-0.04c0.03,0,0.06,0.01,0.08,0.04l1.32,1.58C-12.82-17.55-12.83-17.46-12.88-17.38z"/>
			<path class="st3" d="M-7.03-11.7l-1.34-1.59l-0.02-0.02c-0.34-0.28-0.84-0.27-1.17,0.01l-0.05,0.05c-0.26,0.28-0.63,0.45-1,0.47
				c-1.44-0.34-2.5-1.61-2.59-3.09c0.09-0.37,0.32-0.69,0.63-0.9l0.06-0.04c0.35-0.28,0.44-0.76,0.22-1.15l-1.35-1.62
				c-0.18-0.27-0.55-0.51-1.22-0.14c-0.74,0.4-2.03,1.62-1.78,2.74c0.56,1.64,1.43,3.12,2.58,4.4l0.07,0.08
				c1.06,1.36,2.37,2.48,3.89,3.33c0.17,0.07,0.34,0.1,0.53,0.1c0.01,0,0.01,0,0.02,0c0.97-0.12,1.84-0.62,2.45-1.38
				C-6.72-10.95-6.69-11.36-7.03-11.7z M-8.84-12.82l1.32,1.57l0.01,0.01c0.04,0.04,0.08,0.08-0.02,0.24l-1.54-1.83
				C-8.99-12.86-8.91-12.86-8.84-12.82z M-14.26-19.33c0.06,0,0.12,0.03,0.14,0.09l0.01,0.01l1.32,1.57
				c0.06,0.13,0.03,0.29-0.08,0.39c-0.01,0-0.01,0-0.01,0l-1.66-1.97C-14.45-19.29-14.36-19.32-14.26-19.33z M-9.85-9.8
				c-1.42-0.79-2.64-1.84-3.63-3.13l-0.07-0.09c-1.1-1.2-1.92-2.59-2.45-4.11c-0.11-0.51,0.42-1.24,1.01-1.72l1.61,1.91
				c-0.24,0.27-0.4,0.59-0.47,0.96c0.03,1.87,1.38,3.49,3.22,3.86h0.03c0.36-0.01,0.7-0.11,1.01-0.29l1.6,1.91
				C-8.56-10-9.37-9.6-9.85-9.8z"/>
		</g>
		<g id="Path_5940_1_">
			<path class="st3" d="M-19.02-8.41c-0.38-0.38-0.91-0.62-1.5-0.62c-1.18,0-2.14,0.95-2.14,2.13s0.96,2.14,2.14,2.14
				c1.17,0,2.13-0.96,2.13-2.14C-18.39-7.49-18.63-8.02-19.02-8.41z M-20.52-5.43h-0.01c-0.39,0-0.76-0.15-1.03-0.43
				C-21.84-6.14-22-6.51-22-6.9s0.15-0.76,0.43-1.04c0.28-0.28,0.65-0.43,1.04-0.43c0.39,0,0.76,0.15,1.04,0.42
				c0.28,0.28,0.43,0.65,0.43,1.05C-19.06-6.09-19.72-5.44-20.52-5.43z"/>
		</g>
		<g id="Path_5941_1_">
			<polygon class="st3" points="-19.43,-7.4 -20.57,-5.74 -21.61,-6.66 -21.16,-7.16 -20.69,-6.74 -19.98,-7.77 			"/>
		</g>
	</g>
</g>
</svg>
