<!-- Generated by IcoMoon.io -->
<svg version="1.1" xmlns="http://www.w3.org/2000/svg" width="1029" height="1024" viewBox="0 0 1029 1024">
<title></title>
<g id="icomoon-ignore">
</g>
<path stroke-linejoin="miter" stroke-linecap="butt" stroke-miterlimit="4" stroke-width="10.6667" stroke="#000" fill="#000" d="M158.421 937.344c-3.813-0.83-7.116-2.647-9.734-5.169l0.006 0.006c-88.578-89.263-143.318-212.214-143.318-347.95 0-0.374 0-0.748 0.001-1.122v0.059c0-0.133 0-0.292 0-0.45 0-87.044 22.517-168.828 62.043-239.847l-1.285 2.516c85.93-156.156 249.367-260.22 437.114-260.267h1.628c0.102 0 0.222 0 0.343 0 275.236 0 498.446 222.746 499.198 497.805v0.072c0.001 0.291 0.001 0.637 0.001 0.982 0 134.894-54.035 257.167-141.641 346.355l0.072-0.073c-0.512 0.512-1.195 0.683-1.749 1.152-1.351 1.25-2.896 2.319-4.58 3.149l-0.113 0.051c-0.147 0.058-0.273 0.13-0.388 0.216l0.004-0.003c-2.508 1.151-5.441 1.826-8.53 1.835h-0.003c-5.137-0.034-9.824-1.934-13.423-5.056l0.026 0.022-54.528-47.445c-4.295-3.744-6.993-9.224-6.993-15.335 0-5.136 1.906-9.826 5.050-13.403l-0.020 0.023c3.766-4.29 9.26-6.983 15.384-6.983 5.146 0 9.847 1.902 13.44 5.041l-0.024-0.021 39.808 34.645c69.068-76.118 112.709-176.42 116.882-286.825l0.025-0.834h-60.757c-0.013 0-0.028 0-0.043 0-11.24 0-20.352-9.112-20.352-20.352 0 0 0 0 0 0v0c0.024-11.245 9.146-20.352 20.395-20.352 0 0 0 0 0 0h56.235c-5.266-113.187-51.421-214.675-123.912-290.877l0.178 0.189-40.789 40.661c-3.671 3.69-8.753 5.973-14.368 5.973-0.019 0-0.037 0-0.056 0h0.003c-0.007 0-0.016 0-0.025 0-5.637 0-10.742-2.282-14.439-5.974v0c-3.688-3.684-5.97-8.775-5.97-14.4s2.282-10.716 5.97-14.4v0l40.491-40.277c-75.097-66.951-173.249-109.481-281.207-114.396l-0.99-0.036v56.021c-0.048 11.227-9.161 20.309-20.394 20.309-0.015 0-0.030 0-0.045 0h0.002c-0.025 0-0.055 0-0.085 0-11.217 0-20.309-9.093-20.309-20.309 0 0 0 0 0 0v0-55.979c-106.709 5.136-202.964 46.089-277.907 110.993l0.574-0.486 39.552 39.467c3.707 3.667 6.002 8.755 6.002 14.379s-2.295 10.711-6 14.377l-0.002 0.002c-3.671 3.69-8.753 5.973-14.368 5.973-0.019 0-0.037 0-0.056 0h0.003c-5.631-0.005-10.728-2.286-14.422-5.974l-40.405-40.32c-28.296 28.953-52.858 61.741-72.789 97.465l-1.195 2.332c-31.241 56.436-50.911 123.211-54.109 194.273l-0.035 0.969h56.192c0 0 0 0 0 0 11.249 0 20.37 9.107 20.395 20.35v0.002c0 0 0 0 0 0 0 11.24-9.112 20.352-20.352 20.352-0.015 0-0.030 0-0.045 0h-57.427c4.185 112.291 48.621 213.459 119.205 290.2l-0.293-0.323 39.808-36.48c3.623-3.326 8.474-5.364 13.801-5.364 5.943 0 11.294 2.537 15.029 6.587l0.013 0.014c3.365 3.608 5.431 8.467 5.431 13.807 0 5.911-2.531 11.232-6.568 14.936l-0.015 0.013-53.76 49.237c-3.63 3.308-8.479 5.333-13.801 5.333-0.008 0-0.016 0-0.024 0h0.001c-2.38-0.001-4.669-0.391-6.806-1.111l0.15 0.044zM464.811 641.707c-4.992-5.547-102.187-168.277-159.701-264.789-1.011-1.675-1.609-3.698-1.609-5.861 0-3.375 1.457-6.409 3.775-8.509l0.010-0.009c2.016-1.817 4.7-2.929 7.643-2.929 2.589 0 4.976 0.86 6.893 2.31l-0.029-0.021c89.941 67.328 241.621 181.12 246.613 186.624 11.058 12.305 17.82 28.664 17.82 46.602 0 20.533-8.861 38.997-22.967 51.777l-0.059 0.053c-12.255 11.090-28.586 17.877-46.502 17.877-0.017 0-0.033 0-0.050 0h0.003c-20.554-0.013-39.026-8.912-51.785-23.063l-0.055-0.062z"></path>
</svg>
