<svg xmlns="http://www.w3.org/2000/svg" width="17.44" height="17.431" viewBox="0 0 17.44 17.431"><defs><style>.a{fill:#2666bf;}</style></defs><path class="a" d="M19.02,16.268a.671.671,0,0,0-.671.671V19.5a.331.331,0,0,1-.322.34H3.922a.331.331,0,0,1-.331-.331h0V16.921a.671.671,0,0,0-1.342,0v2.558A1.682,1.682,0,0,0,3.922,21.16h14.1a1.681,1.681,0,0,0,1.672-1.672V16.921A.671.671,0,0,0,19.02,16.268Z" transform="translate(-2.25 -3.729)"/><path class="a" d="M10.95,15.442h.063a.582.582,0,0,0,.411.161h0a.671.671,0,0,0,.474-.161l4.025-4.025a.671.671,0,1,0-.915-.981l-.033.033-2.88,2.88V2.921a.671.671,0,1,0-1.342,0V13.376L7.927,10.523a.671.671,0,0,0-.948.948Z" transform="translate(-2.73 -2.25)"/></svg>