<svg width="12" height="12" viewBox="0 0 12 12" fill="none" xmlns="http://www.w3.org/2000/svg">
<path d="M9.59165 0.155219C9.49164 0.055802 9.35635 0 9.21533 0C9.07432 0 8.93903 0.055802 8.83902 0.155219L7.33376 1.6498L0.928419 8.05514C0.860981 8.12307 0.813046 8.20787 0.789637 8.30068L0.0156577 11.3379C-0.0041397 11.4178 -0.00517769 11.5012 0.012625 11.5816C0.0304277 11.662 0.0665883 11.7372 0.118278 11.8013C0.169968 11.8654 0.235786 11.9167 0.310584 11.9511C0.385381 11.9855 0.46713 12.0022 0.549437 11.9998H0.677543L3.69339 11.2471C3.7862 11.2237 3.87101 11.1758 3.93893 11.1084L10.3443 4.70301L11.8442 3.16573C11.9436 3.06572 11.9994 2.93043 11.9994 2.78942C11.9994 2.6484 11.9436 2.51311 11.8442 2.4131L9.59165 0.155219ZM3.27705 10.233L1.2647 10.7347L1.76645 8.72237L7.70207 2.78675L9.21267 4.29734L3.27705 10.233ZM9.96529 3.53938L8.46004 2.03412L9.21267 1.27615L10.7233 2.78675L9.96529 3.53938Z" fill="black"/>
</svg>
