<svg width="16" height="15" viewBox="0 0 16 15" fill="none" xmlns="http://www.w3.org/2000/svg">
<path d="M14.4375 8.8252C14.793 8.8252 15.0938 8.96191 15.3672 9.20801C15.6133 9.48145 15.75 9.78223 15.75 10.1377V13.6377C15.75 14.0205 15.6133 14.3213 15.3672 14.5674C15.0938 14.8408 14.793 14.9502 14.4375 14.9502H1.3125C0.929688 14.9502 0.628906 14.8408 0.382812 14.5674C0.109375 14.3213 0 14.0205 0 13.6377V10.1377C0 9.78223 0.109375 9.48145 0.382812 9.20801C0.628906 8.96191 0.929688 8.8252 1.3125 8.8252H3.82812L2.57031 7.56738C2.29688 7.29395 2.1875 6.99316 2.1875 6.6377C2.1875 6.28223 2.32422 5.98145 2.57031 5.70801C2.81641 5.46191 3.11719 5.3252 3.5 5.3252H5.25V2.2627C5.25 1.90723 5.35938 1.60645 5.63281 1.33301C5.87891 1.08691 6.17969 0.950195 6.5625 0.950195H9.1875C9.54297 0.950195 9.84375 1.08691 10.1172 1.33301C10.3633 1.60645 10.5 1.90723 10.5 2.2627V5.3252H12.25C12.6328 5.3252 12.9336 5.46191 13.1797 5.70801C13.4258 5.98145 13.5625 6.28223 13.5625 6.6377C13.5625 6.99316 13.4531 7.29395 13.1797 7.56738L11.9219 8.8252H14.4375ZM3.5 6.6377L7.875 11.0127L12.25 6.6377H9.1875V2.2627H6.5625V6.6377H3.5ZM14.4375 13.6377V10.1377H10.6094L8.80469 11.9424C8.53125 12.2158 8.23047 12.3252 7.875 12.3252C7.49219 12.3252 7.19141 12.2158 6.94531 11.9424L5.14062 10.1377H1.3125V13.6377H14.4375ZM12.0312 11.8877C12.0312 12.0791 12.0859 12.2432 12.2227 12.3525C12.332 12.4893 12.4961 12.5439 12.6875 12.5439C12.8516 12.5439 13.0156 12.4893 13.1523 12.3525C13.2617 12.2432 13.3438 12.0791 13.3438 11.8877C13.3438 11.7236 13.2617 11.5596 13.1523 11.4229C13.0156 11.3135 12.8516 11.2314 12.6875 11.2314C12.4961 11.2314 12.332 11.3135 12.2227 11.4229C12.0859 11.5596 12.0312 11.7236 12.0312 11.8877Z" fill="#616161"/>
</svg>
