<?xml version="1.0" encoding="utf-8"?>
<!-- Generator: Adobe Illustrator 24.1.2, SVG Export Plug-In . SVG Version: 6.00 Build 0)  -->
<svg version="1.1" id="Layer_1" xmlns="http://www.w3.org/2000/svg" xmlns:xlink="http://www.w3.org/1999/xlink" x="0px" y="0px"
	 viewBox="0 0 14.63 16.69" style="enable-background:new 0 0 14.63 16.69;" xml:space="preserve">
<style type="text/css">
	.st0{fill:#FFFFFF;}
	.st1{fill:#F5F4F5;}
	.st2{opacity:0.4;fill:#3065AE;enable-background:new    ;}
	.st3{fill:#010202;}
	.st4{fill:#F5F4F5;fill-opacity:0;}
	.st5{fill:#070808;stroke:#070808;stroke-width:0.25;}
	.st6{fill:#010202;stroke:#010202;stroke-width:0.5;}
	.st7{fill:#010202;stroke:#010202;stroke-width:0.25;}
	.st8{fill:#010202;stroke:#010202;stroke-width:0.15;}
	.st9{fill:none;stroke:#EEEEEE;}
	.st10{fill:#FDC309;}
	.st11{enable-background:new    ;}
	.st12{fill:#070808;}
</style>
<g id="Path_1566_1_">
	<g>
		<path class="st12" d="M12.91,15.65c-0.01,0.1-0.06,0.19-0.14,0.26c-0.46,0.37-1.01,0.56-1.56,0.56c-0.45,0-0.9-0.12-1.31-0.38
			c-0.79,0.5-1.79,0.5-2.59,0c-0.8,0.5-1.8,0.5-2.59,0c-0.89,0.56-2.03,0.49-2.85-0.17c-0.08-0.07-0.13-0.16-0.14-0.26
			c-0.01-0.11,0.02-0.21,0.08-0.28c0.14-0.17,0.38-0.19,0.54-0.06c0.59,0.48,1.43,0.51,2.05,0.06c0.07-0.08,0.19-0.14,0.33-0.15
			h0.01c0.01,0,0.01,0,0.02,0c0.13,0,0.26,0.07,0.33,0.19c0.57,0.38,1.33,0.37,1.9-0.03c0.03-0.03,0.06-0.06,0.1-0.09
			c0.09-0.06,0.21-0.08,0.32-0.06c0.1,0.03,0.19,0.09,0.26,0.17c0.58,0.39,1.34,0.38,1.91-0.02c0.03-0.04,0.07-0.07,0.11-0.1
			c0.19-0.11,0.44-0.06,0.57,0.12c0.62,0.42,1.44,0.38,2.02-0.09c0.08-0.07,0.19-0.1,0.28-0.09c0.1,0.01,0.19,0.06,0.26,0.14
			C12.88,15.45,12.91,15.55,12.91,15.65z"/>
		<path class="st12" d="M12.9,14.62c-0.01,0.1-0.06,0.19-0.14,0.26c-0.45,0.37-1,0.56-1.55,0.56c-0.45,0-0.91-0.13-1.31-0.38
			c-0.8,0.5-1.8,0.5-2.59,0c-0.8,0.5-1.8,0.5-2.59,0c-0.9,0.56-2.03,0.49-2.86-0.18c-0.08-0.07-0.13-0.16-0.14-0.26
			c-0.01-0.11,0.02-0.21,0.09-0.29c0.07-0.07,0.16-0.12,0.26-0.13c0.12-0.01,0.2,0.03,0.28,0.09c0.58,0.47,1.4,0.51,2.01,0.09
			c0.07-0.12,0.21-0.19,0.36-0.18l0.14-0.03v0.06c0.09,0.03,0.17,0.09,0.22,0.17c0.56,0.38,1.31,0.37,1.87-0.01
			c0.07-0.11,0.19-0.18,0.32-0.18l0.05-0.01c0.01,0,0.01,0,0.02,0c0.13,0,0.26,0.07,0.33,0.18c0.56,0.38,1.31,0.38,1.88,0
			c0.07-0.11,0.19-0.18,0.32-0.18c0.01,0,0.01,0,0.01,0l0.04-0.01c0.15,0.01,0.27,0.07,0.34,0.19c0.61,0.42,1.44,0.38,2.01-0.1
			c0.17-0.13,0.41-0.11,0.54,0.06C12.88,14.41,12.91,14.51,12.9,14.62z"/>
		<path class="st12" d="M14.41,7.37c-0.04-0.1-0.12-0.17-0.22-0.21l-2.86-1.07V3.71c0-0.22-0.18-0.39-0.39-0.39H9.77V2.15
			c0-0.21-0.18-0.38-0.39-0.38H8.21V0.6c0-0.21-0.17-0.38-0.39-0.38H6.8c-0.21,0-0.39,0.17-0.39,0.38v1.17H5.24
			c-0.22,0-0.39,0.17-0.39,0.38v1.17H3.68c-0.21,0-0.39,0.17-0.39,0.38v2.35L0.44,7.1c-0.2,0.07-0.3,0.29-0.22,0.5l2.29,5.78
			c-0.06-0.04-0.11-0.08-0.16-0.12c-0.17-0.13-0.41-0.11-0.54,0.06c-0.07,0.08-0.1,0.17-0.09,0.28c0.01,0.1,0.06,0.19,0.14,0.26
			c0.83,0.67,1.96,0.73,2.85,0.17c0.8,0.5,1.8,0.5,2.6,0c0.79,0.5,1.79,0.5,2.59,0c0.4,0.26,0.85,0.38,1.3,0.38
			c0.56,0,1.11-0.19,1.56-0.56c0.08-0.07,0.13-0.16,0.14-0.26c0.01-0.1-0.02-0.2-0.09-0.28c-0.13-0.16-0.37-0.19-0.54-0.05
			c-0.04,0.03-0.09,0.07-0.13,0.1l2.27-5.7C14.45,7.57,14.45,7.46,14.41,7.37z M7.45,0.99v0.74H7.18V0.99H7.45z M5.62,2.54H9v0.78
			H5.62V2.54z M6.93,13.36c-0.56,0.37-1.3,0.36-1.86-0.01c-0.13-0.18-0.39-0.23-0.58-0.11c-0.04,0.02-0.08,0.05-0.1,0.09
			c-0.28,0.2-0.61,0.3-0.95,0.31L1.08,7.68l5.85-2.14V13.36z M7.32,4.61c-0.04,0-0.08,0.01-0.11,0.02L4.07,5.77V4.09h6.49V5.8
			l-3.1-1.16C7.41,4.62,7.36,4.61,7.32,4.61z M11.19,13.63c-0.33,0-0.66-0.1-0.94-0.29c-0.06-0.08-0.14-0.14-0.24-0.16
			c-0.12-0.03-0.23-0.01-0.33,0.05c-0.04,0.03-0.07,0.06-0.1,0.1c-0.56,0.39-1.3,0.4-1.88,0.04V5.54l5.85,2.2L11.19,13.63z"/>
	</g>
</g>
</svg>
