<!-- Generated by IcoMoon.io -->
<svg version="1.1" xmlns="http://www.w3.org/2000/svg" width="1024" height="1024" viewBox="0 0 1024 1024">
<title></title>
<g id="icomoon-ignore">
</g>
<path fill="#000" d="M109.227 981.333c-0.064 0.001-0.139 0.001-0.214 0.001-12.948 0-23.455-10.448-23.551-23.373v-516.83c0.428-3.326 1.515-6.329 3.129-8.975l-0.057 0.1v-1.408l94.933-140.245c4.348-6.345 11.546-10.463 19.707-10.496h94.938c0.063-0.001 0.139-0.001 0.214-0.001 12.939 0 23.437 10.453 23.509 23.375v0.007c-0.096 12.934-10.604 23.382-23.551 23.382-0.060 0-0.12 0-0.181-0.001h-82.124l-63.317 93.44h718.080l-63.317-93.44h-82.133c-0.051 0-0.111 0.001-0.172 0.001-12.956 0-23.473-10.443-23.594-23.371v-0.011c0.096-12.934 10.604-23.382 23.551-23.382 0.075 0 0.15 0 0.225 0.001h94.922c0.132-0.003 0.287-0.004 0.442-0.004 8.477 0 15.921 4.422 20.151 11.086l0.058 0.097 94.891 140.245v1.408c1.508 2.45 2.6 5.324 3.097 8.398l0.018 0.135v516.267c-0.096 12.934-10.604 23.382-23.551 23.382-0.075 0-0.15 0-0.225-0.001h0.011zM131.968 934.4h759.467v-467.499h-759.467zM723.883 835.2c0 0 0 0 0 0-13.432 0-24.32-10.888-24.32-24.32 0-0.015 0-0.030 0-0.045v0.002c0-0.013 0-0.028 0-0.043 0-13.408 10.869-24.277 24.277-24.277 0.015 0 0.030 0 0.045 0h48.681c0.013 0 0.028 0 0.043 0 13.408 0 24.277 10.869 24.277 24.277 0 0.015 0 0.030 0 0.045v-0.002c0 0.013 0 0.028 0 0.043 0 13.432-10.888 24.32-24.32 24.32 0 0 0 0 0 0v0zM499.499 291.157l-102.4-99.541c-4.643-4.464-7.527-10.727-7.527-17.664s2.884-13.2 7.519-17.656l0.008-0.008c4.701-4.524 11.102-7.311 18.155-7.311s13.454 2.787 18.163 7.319l-0.008-0.008 58.581 57.259v-188.843c0.215-13.785 11.44-24.877 25.256-24.877 0.121 0 0.242 0.001 0.363 0.003h-0.018c0.115-0.002 0.25-0.003 0.386-0.003 13.807 0 25.023 11.098 25.214 24.86v188.903l58.581-57.259c4.693-4.562 11.105-7.376 18.175-7.381h0.001c7.070 0.010 13.481 2.823 18.182 7.388l-0.006-0.006c4.644 4.465 7.534 10.725 7.552 17.661v0.003c-0.002 6.941-2.896 13.206-7.543 17.656l-0.009 0.008-102.4 99.541c-4.681 4.515-11.060 7.296-18.088 7.296-0.031 0-0.062 0-0.093 0h0.005c-0.071 0.001-0.154 0.001-0.238 0.001-6.958 0-13.279-2.731-17.949-7.179l0.011 0.010z"></path>
</svg>
