<?xml version="1.0" encoding="utf-8"?>
<!-- Generator: Adobe Illustrator 24.2.1, SVG Export Plug-In . SVG Version: 6.00 Build 0)  -->
<svg version="1.1" id="Layer_1" xmlns="http://www.w3.org/2000/svg" xmlns:xlink="http://www.w3.org/1999/xlink" x="0px" y="0px"
	 viewBox="0 0 20.8 14.9" style="enable-background:new 0 0 20.8 14.9;" xml:space="preserve">
<path d="M17,11c0.6,0,1.1,0.5,1.1,1.1s-0.5,1.1-1.1,1.1s-1.1-0.5-1.1-1.1C15.9,11.5,16.4,11,17,11z M17,12.6c0.3,0,0.5-0.2,0.5-0.5
	c0-0.3-0.2-0.5-0.5-0.5s-0.5,0.2-0.5,0.5C16.4,12.4,16.7,12.6,17,12.6z"/>
<path d="M3.5,11c0.6,0,1.1,0.5,1.1,1.1s-0.5,1.1-1.1,1.1s-1.1-0.5-1.1-1.1C2.4,11.5,2.9,11,3.5,11z M3.5,12.6c0.3,0,0.5-0.2,0.5-0.5
	s-0.2-0.5-0.5-0.5S3,11.8,3,12.1S3.2,12.6,3.5,12.6z"/>
<path d="M20.2,9.9l-12.6,0c0,0-0.1-6.8-0.1-6.7l-4.3,0c-1,0-2.5,3.1-3.1,4.5c0,0,0,0.1,0,0.1l0,4.3c0,0.2,0.1,0.3,0.3,0.3l0.9,0
	c0.2,1.2,1.3,2.1,2.5,1.9c1-0.1,1.8-0.9,1.9-1.9l9,0c0.2,1.2,1.3,2.1,2.5,1.9c1-0.1,1.8-0.9,1.9-1.9l1.3,0c0.2,0,0.3-0.1,0.3-0.3
	l0-2.3C20.4,9.9,20.3,9.9,20.2,9.9z M3.2,3.8l0.9,0l0,3.7l-3.3,0C1.7,5.5,2.8,3.8,3.2,3.8z M0.6,9.1l0.7,0l0,0.5l-0.7,0L0.6,9.1z
	 M3.5,13.8c-0.9,0-1.7-0.8-1.7-1.7c0-0.9,0.8-1.7,1.7-1.7c0.9,0,1.7,0.7,1.7,1.7C5.1,13,4.4,13.8,3.5,13.8z M5.7,11.8
	c-0.2-1.2-1.3-2.1-2.5-1.9c-1,0.1-1.8,0.9-1.9,1.9l-0.6,0l0-1.7l0.7,0c0.3,0,0.6-0.3,0.6-0.6l0-0.5c0-0.3-0.3-0.6-0.6-0.6
	c0,0,0,0,0,0l-0.7,0l0-0.4l3.8,0c0.2,0,0.3-0.1,0.3-0.3l0-4l2.3,0l0,8L5.7,11.8L5.7,11.8z M7.6,10.5l7.8,0c-0.4,0.4-0.7,0.8-0.7,1.4
	l-7.1,0L7.6,10.5z M16.9,13.8c-0.9,0-1.7-0.8-1.7-1.7c0-0.9,0.8-1.7,1.7-1.7c0.9,0,1.7,0.7,1.7,1.7C18.6,13,17.8,13.8,16.9,13.8z
	 M19.1,11.8c-0.1-0.5-0.3-1-0.7-1.4l1.8,0l0,1.4L19.1,11.8z"/>
<path d="M20.8,2.5c0,0.1,0,0.2-0.1,0.3c-0.1,0.3-0.2,0.5-0.4,0.7l-4.4,4.4c-0.5,0.5-1,1-1.5,1.5c-0.3,0.3-0.7,0.5-1.2,0.5
	c-0.4,0-0.7-0.2-1-0.5l-1.9-1.9c-0.3-0.3-0.5-0.5-0.8-0.8C9,6.1,9,5.1,9.5,4.6c0.2-0.2,0.3-0.3,0.5-0.5c0.6-0.4,1.4-0.4,1.9,0.2
	c0.4,0.4,0.8,0.8,1.3,1.3c0,0,0,0,0,0.1l0.3-0.3C15,3.9,16.4,2.5,17.8,1c0.2-0.2,0.5-0.4,0.9-0.5c0.4-0.1,0.9,0.1,1.2,0.3
	c0.2,0.2,0.3,0.3,0.5,0.5c0.2,0.2,0.3,0.5,0.3,0.8c0,0,0,0,0,0L20.8,2.5z M13.3,6.5l-0.4-0.4c-0.5-0.5-0.9-0.9-1.4-1.4
	c-0.3-0.3-0.8-0.3-1.1-0.1C10.3,4.8,10.2,4.9,10,5c-0.3,0.3-0.3,0.8,0,1.2c0,0,0,0,0,0c0.9,0.9,1.8,1.8,2.7,2.7
	c0.2,0.2,0.4,0.2,0.6,0.2c0.2,0,0.5-0.1,0.6-0.3L17,5.8L19.8,3c0.3-0.3,0.3-0.8,0-1.2c-0.1-0.1-0.2-0.3-0.4-0.4
	c-0.1-0.1-0.3-0.2-0.5-0.2c-0.2,0-0.5,0.1-0.6,0.3L13.3,6.5C13.3,6.5,13.3,6.5,13.3,6.5L13.3,6.5z"/>
</svg>
