<svg xmlns="http://www.w3.org/2000/svg" width="15.703" height="17.715" viewBox="0 0 15.703 17.715"><g transform="translate(-11 -5.992)"><g transform="translate(11 5.992)"><path d="M18.82,5.994a.4.4,0,0,0-.17.05L11.2,10.272a.4.4,0,0,0-.2.352V19.08a.4.4,0,0,0,.2.346l7.449,4.228a.4.4,0,0,0,.4,0L26.5,19.426a.4.4,0,0,0,.2-.346V10.624a.4.4,0,0,0-.2-.352L19.053,6.044A.4.4,0,0,0,18.82,5.994Zm.031.862,6.631,3.768-6.631,3.762L12.22,10.624ZM11.805,11.31l6.643,3.775v7.531l-6.643-3.775Zm14.092,0v7.531l-6.643,3.775V15.085Z" transform="translate(-11 -5.992)"/></g></g></svg>