<?xml version="1.0" encoding="utf-8"?>
<!-- Generator: Adobe Illustrator 24.2.1, SVG Export Plug-In . SVG Version: 6.00 Build 0)  -->
<svg version="1.1" id="Layer_1" xmlns="http://www.w3.org/2000/svg" xmlns:xlink="http://www.w3.org/1999/xlink" x="0px" y="0px"
	 viewBox="0 0 16.48 18.99" style="enable-background:new 0 0 16.48 18.99;" xml:space="preserve">
<style type="text/css">
	.st0{fill:#F5F4F5;}
	.st1{fill:#FFFFFF;}
	.st2{opacity:0.4;fill:#3065AE;enable-background:new    ;}
	.st3{fill:#010202;}
	.st4{fill:#F5F4F5;fill-opacity:0;}
	.st5{fill:#070808;stroke:#070808;stroke-width:0.25;}
	.st6{fill:#010202;stroke:#010202;stroke-width:0.5;}
	.st7{fill:#010202;stroke:#010202;stroke-width:0.25;}
	.st8{fill:#010202;stroke:#010202;stroke-width:0.15;}
	.st9{fill:none;stroke:#EEEEEE;}
	.st10{fill:#FDC309;}
	.st11{enable-background:new    ;}
	.st12{fill:#070808;}
	.st13{fill:#3065AE;}
	.st14{fill:#9E9E9E;}
	.st15{fill:#12100B;}
	.st16{fill:#13110C;}
	.st17{fill:#303C42;}
</style>
<g id="Group_19329" transform="translate(-483.1 -2760.1)">
	<g id="Line_2234">
		<polygon class="st17" points="487.4,2775.44 487.35,2775.46 487.37,2775.41 		"/>
	</g>
	<g id="Path_6082">
		<path class="st17" d="M499.12,2764.48l-0.79-0.78c-0.33-0.34-0.81-0.49-1.27-0.43c-0.02-0.71-0.61-1.28-1.33-1.28h-1.87
			c-0.15-0.37-0.52-0.63-0.95-0.63h-0.99c-0.34-0.88-1.27-1.41-2.23-1.22c-0.66,0.14-1.2,0.6-1.44,1.22h-0.99
			c-0.42,0-0.78,0.26-0.94,0.62h-1.88c-0.74,0-1.34,0.61-1.34,1.34v14.43c0,0.74,0.6,1.34,1.34,1.34h11.29
			c0.74,0,1.34-0.6,1.34-1.34v-9.01l2.05-2.03c0.3-0.3,0.46-0.69,0.46-1.11C499.58,2765.18,499.42,2764.78,499.12,2764.48z
			 M487.04,2762.38c0-0.12,0.1-0.22,0.22-0.22h1.29c0.19,0,0.35-0.14,0.39-0.32c0.09-0.46,0.45-0.82,0.91-0.92
			c0.62-0.12,1.25,0.29,1.38,0.92c0.04,0.18,0.2,0.32,0.39,0.32h1.29c0.12,0,0.23,0.1,0.23,0.22v0.32c0,0.3-0.25,0.54-0.54,0.54
			h-5.02c-0.3,0-0.54-0.24-0.54-0.54V2762.38z M496.27,2777.75c0,0.3-0.24,0.54-0.54,0.54h-11.29c-0.3,0-0.54-0.24-0.54-0.54v-14.43
			c0-0.29,0.24-0.54,0.54-0.54h1.81c0.03,0.7,0.62,1.26,1.33,1.26h5.02c0.7,0,1.29-0.55,1.33-1.25h1.8c0.3,0,0.54,0.24,0.54,0.54
			v0.23c-0.06,0.04-0.12,0.09-0.17,0.14l-8.18,8.28c-0.04,0.04-0.07,0.08-0.09,0.13v0.01l-0.01,0.02l-1.55,3.89
			c-0.06,0.15-0.03,0.32,0.08,0.43c0.08,0.08,0.18,0.12,0.29,0.12c0.05,0,0.1-0.01,0.14-0.03l3.92-1.56
			c0.05-0.02,0.1-0.05,0.14-0.09l5.43-5.37V2777.75z M489.88,2772.37l-0.14-0.29c-0.07-0.13-0.21-0.22-0.36-0.22h-0.21l6.44-6.52
			l0.65,0.65L489.88,2772.37z M490.26,2773.74l0.2,0.4l-0.13,0.13l-2.93,1.17l-0.05,0.02l0.02-0.05l1.11-2.75h0.65l0.27,0.54
			c0.02,0.04,0.05,0.09,0.09,0.13c0.05,0.05,0.1,0.08,0.15,0.09L490.26,2773.74z M491.06,2773.55l-0.15-0.29
			c-0.03-0.08-0.1-0.14-0.18-0.18l-0.28-0.14l6.38-6.38l0.64,0.64L491.06,2773.55z M498.55,2766.14l-0.5,0.5l-1.88-1.88l0.5-0.5
			c0.04-0.04,0.08-0.07,0.12-0.1h0.01c0.02-0.02,0.04-0.03,0.07-0.04c0.29-0.14,0.67-0.09,0.9,0.14l0.78,0.79
			c0.15,0.14,0.23,0.34,0.23,0.55C498.78,2765.8,498.7,2766,498.55,2766.14z"/>
	</g>
</g>
</svg>
