<svg xmlns="http://www.w3.org/2000/svg" width="17.862" height="18.457" viewBox="0 0 17.862 18.457"><g transform="translate(-13.094 -18.68)"><g transform="translate(13.094 18.68)"><path d="M21.324,31.671l-6.1-11.823-1.711.971-.417-.734,2.475-1.4,6.5,12.6Z" transform="translate(-13.094 -18.68)"/></g><g transform="translate(25.412 29.572)"><rect width="5.857" height="0.844" transform="matrix(0.877, -0.48, 0.48, 0.877, 0, 2.809)"/></g><g transform="translate(19.323 21.052)"><path d="M40.662,38.094l-.388-.725,5.49-2.936-3.212-6.215-6.21,3.209,2.792,5.4-.73.377-3.169-6.132,7.671-3.964,3.962,7.666Z" transform="translate(-35.235 -27.11)"/></g><g transform="translate(19.86 30.797)"><path d="M40.314,68.09a3.17,3.17,0,1,1,3.17-3.17A3.173,3.173,0,0,1,40.314,68.09Zm0-5.5a2.326,2.326,0,1,0,2.326,2.326A2.328,2.328,0,0,0,40.314,62.6Z" transform="translate(-37.144 -61.751)"/></g></g></svg>