<svg xmlns="http://www.w3.org/2000/svg" width="18" height="11" viewBox="0 0 18 11"><g transform="translate(-3.277 -10.125)"><path d="M8.227,26.145a.959.959,0,1,0,.959.959A.96.96,0,0,0,8.227,26.145Zm0,1.406a.448.448,0,1,1,.448-.448A.448.448,0,0,1,8.227,27.551Z" transform="translate(-1.953 -7.947)"/><path d="M31.227,26.145a.959.959,0,1,0,.959.959A.96.96,0,0,0,31.227,26.145Zm0,1.406a.448.448,0,1,1,.448-.448A.448.448,0,0,1,31.227,27.551Z" transform="translate(-13.31 -7.947)"/><rect width="1.278" height="0.511" transform="translate(7.322 15.908)"/><path d="M21.022,10.125H9.6a.253.253,0,0,0-.254.253v1.067H6.023c-.829,0-2.18,2.717-2.722,3.886a.249.249,0,0,0-.023.106v3.74a.253.253,0,0,0,.254.253h.789a1.955,1.955,0,0,0,3.875,0H16a1.955,1.955,0,0,0,3.875,0h1.149a.253.253,0,0,0,.254-.253v-8.8A.255.255,0,0,0,21.022,10.125Zm-11.173.506H20.768v6.6H9.849ZM6.023,11.95h.784v3.234H3.931C4.778,13.425,5.708,11.979,6.023,11.95ZM3.784,16.522l.645,0,0,.432H3.784Zm2.472,4.1A1.443,1.443,0,1,1,7.7,19.176,1.447,1.447,0,0,1,6.257,20.619Zm1.937-1.7a1.955,1.955,0,0,0-3.875,0H3.784v-1.46h.641a.511.511,0,0,0,.512-.51v-.428a.511.511,0,0,0-.512-.51H3.784v-.327H7.06a.253.253,0,0,0,.254-.253V11.949H9.341v6.973H8.194Zm1.655-1.189h6.776A1.942,1.942,0,0,0,16,18.924H9.849Zm8.086,2.885a1.443,1.443,0,1,1,1.449-1.443A1.447,1.447,0,0,1,17.935,20.619Zm1.938-1.7a1.942,1.942,0,0,0-.628-1.19h1.523v1.19Z" transform="translate(0)"/></g></svg>