<svg xmlns="http://www.w3.org/2000/svg" width="17.954" height="18.026" viewBox="0 0 17.954 18.026"><defs><style>.a{stroke:#a1bbe0;stroke-width:0.3px;}</style></defs><g transform="translate(0.16 0.154)"><path class="a" d="M17.343,6.282a1.277,1.277,0,0,0-.778-.415h0l-4.689-.648L10.02.784a1.273,1.273,0,0,0-2.35,0L5.814,5.218l-4.689.648A1.277,1.277,0,0,0,.451,8.084l3.533,3.151-.726,4.944a1.275,1.275,0,0,0,1.977,1.243l3.61-2.455,3.61,2.458a1.275,1.275,0,0,0,1.977-1.243l-.726-4.946,3.533-3.151A1.277,1.277,0,0,0,17.343,6.282Zm-4.73,4.242a.63.63,0,0,0-.2.562l.756,5.293L9.2,13.683a.63.63,0,0,0-.708,0L4.5,16.363l.776-5.279a.63.63,0,0,0-.2-.56L1.3,7.116l5.046-.7a.63.63,0,0,0,.5-.381L8.853,1.261a.028.028,0,0,1,.005.009l1.994,4.766a.63.63,0,0,0,.5.381l5.052.727Z" transform="translate(-0.023 0)"/></g></svg>