<svg xmlns="http://www.w3.org/2000/svg" width="19.174" height="17.8" viewBox="0 0 19.174 17.8"><defs><style>.a{stroke:#a1bbe0;stroke-width:0.3px;}</style></defs><g transform="translate(0.15 0.15)"><path class="a" d="M15.379,7.906V1.893A1.4,1.4,0,0,0,13.986.5H1.393A1.4,1.4,0,0,0,0,1.893V14.486a1.4,1.4,0,0,0,1.393,1.393H9.5a5.188,5.188,0,1,0,5.876-7.972ZM6.321,1.634H9.057v3.13L7.9,4.3a.568.568,0,0,0-.421,0l-1.158.463ZM1.393,14.745a.259.259,0,0,1-.259-.259V1.893a.259.259,0,0,1,.259-.259H5.188V5.6a.567.567,0,0,0,.777.526l1.724-.689,1.725.689a.567.567,0,0,0,.777-.526V1.634h3.794a.259.259,0,0,1,.259.259v5.76A5.189,5.189,0,0,0,8.87,14.745Zm12.292,2.121a4.055,4.055,0,1,1,4.055-4.055A4.059,4.059,0,0,1,13.685,16.866Zm0,0" transform="translate(0 -0.5)"/><path class="a" d="M357.5,265.192h-1.535v-1.535a.567.567,0,1,0-1.134,0v2.1a.567.567,0,0,0,.567.567h2.1a.567.567,0,1,0,0-1.134Zm0,0" transform="translate(-341.752 -253.41)"/></g></svg>