<svg xmlns="http://www.w3.org/2000/svg" width="15.37" height="19.49" viewBox="0 0 15.37 19.49"><defs><style>.a{fill:#090909;stroke:rgba(0,0,0,0);stroke-miterlimit:10;}</style></defs><g transform="translate(-1.247 0.517)"><path class="a" d="M-2661.783-757.527a.478.478,0,0,1-.47-.48v-17.53a.485.485,0,0,1,.47-.48h9.031a.535.535,0,0,1,.18.04.449.449,0,0,1,.159.1l4.39,4.4a.356.356,0,0,1,.1.15.386.386,0,0,1,.041.18v13.14a.487.487,0,0,1-.481.48Zm.481-.959h12.469v-12.181h-3.919a.471.471,0,0,1-.47-.48v-3.91h-8.08Zm9.03-13.13h2.77l-2.77-2.76Zm-7.35,11.639a.239.239,0,0,1-.238-.238v-2.207a.24.24,0,0,1,.238-.238h2.277a.239.239,0,0,1,.239.238v2.207a.238.238,0,0,1-.239.238Zm.236-.476h1.8v-1.73h-1.8Zm8.141.454h-4.922a.238.238,0,0,1-.237-.238.24.24,0,0,1,.237-.238h4.922a.238.238,0,0,1,.239.238.237.237,0,0,1-.237.238Zm-8.377-4.228a.239.239,0,0,1-.238-.238v-2.206a.24.24,0,0,1,.238-.238h2.277a.239.239,0,0,1,.239.238v2.206a.238.238,0,0,1-.239.238Zm.236-.476h1.8v-1.73h-1.8Zm3.219.333a.238.238,0,0,1-.238-.239.238.238,0,0,1,.238-.238h4.922a.238.238,0,0,1,.239.238.238.238,0,0,1-.239.239Zm-1.178-4.361h-2.277a.238.238,0,0,1-.238-.238v-2.206a.24.24,0,0,1,.238-.238h2.277a.239.239,0,0,1,.239.238v2.206a.236.236,0,0,1-.236.238Zm-2.041-.476h1.8v-1.73h-1.8Zm3.219.466a.238.238,0,0,1-.238-.238.239.239,0,0,1,.238-.239h4.922a.238.238,0,0,1,.239.239.238.238,0,0,1-.239.238Z" transform="translate(2664 776)"/></g></svg>