<svg xmlns="http://www.w3.org/2000/svg" width="20.671" height="20.671" viewBox="0 0 20.671 20.671"><defs><style>.a{fill:#040405;}</style></defs><g transform="translate(-0.087 -0.358)"><path class="a" d="M15.2,18.641h0a.442.442,0,0,1-.311-.129l-1.365-1.366a.44.44,0,1,1,.623-.622L15.2,17.579l3.1-3.1a.44.44,0,0,1,.623.621L15.51,18.512A.445.445,0,0,1,15.2,18.641Z"/><path class="a" d="M16.9,5.332a.439.439,0,0,1-.393-.243L14.586,1.238H2.845L.92,5.089A.439.439,0,1,1,.134,4.7L2.18.6A.439.439,0,0,1,2.573.358H14.858A.438.438,0,0,1,15.251.6L17.3,4.7a.438.438,0,0,1-.2.59A.431.431,0,0,1,16.9,5.332Z"/><path class="a" d="M10.763,8.062H6.669a.441.441,0,0,1-.441-.439V4.893l.5-4.149a.44.44,0,0,1,.874.108l-.5,4.094,0,2.237h3.214V4.893L9.832.851a.44.44,0,0,1,.384-.489.446.446,0,0,1,.49.383l.494,4.1,0,2.783A.44.44,0,0,1,10.763,8.062ZM7.109,7.623h0Z"/><path class="a" d="M12.19,17.616H.527a.44.44,0,0,1-.44-.44V4.893a.44.44,0,0,1,.44-.44H16.909a.441.441,0,0,1,.44.44V12.46a.44.44,0,0,1-.88,0V5.332H.967v11.4H12.19a.44.44,0,1,1,0,.88Z"/><path class="a" d="M16.223,21.029a4.534,4.534,0,1,1,4.535-4.535A4.541,4.541,0,0,1,16.223,21.029Zm0-8.19a3.655,3.655,0,1,0,3.655,3.655A3.658,3.658,0,0,0,16.223,12.839Z"/></g></svg>