<svg xmlns="http://www.w3.org/2000/svg" width="14.493" height="14.49" viewBox="0 0 14.493 14.49"><defs><style>.a{fill:#040405;}</style></defs><g transform="translate(68.246 -1.1)"><path class="a" d="M-63.833,14.25v.04a.218.218,0,0,0,.05-.04Z"/><path class="a" d="M-63.823,14.25l-.01.03v.01a.218.218,0,0,0,.05-.04Z"/><path class="a" d="M-63.833,14.25v.04a.218.218,0,0,0,.05-.04Z"/><path class="a" d="M-53.813,3.92-55.5,1.36a.63.63,0,0,0-.51-.26h-7.97a.627.627,0,0,0-.51.27l-1.72,2.6-.02,4.64h.73V4.49h4.06V6.13a.378.378,0,0,0,.1.27.414.414,0,0,0,.27.11h2.17a.376.376,0,0,0,.37-.37V4.49h4.06V14h-8.52a7.49,7.49,0,0,0,.88-3.97V9.84a.367.367,0,0,0-.37-.36h-.01l-.09.01-.05.03a1.781,1.781,0,0,1-2.26-.6.366.366,0,0,0-.58.01,1.807,1.807,0,0,1-2.27.58.342.342,0,0,0-.28,0,.376.376,0,0,0-.2.21l-.02.12c-.07,3.23.93,5.16,2.99,5.75h.12l.05-.01a3.388,3.388,0,0,0,1.49-.84h9.23a.591.591,0,0,0,.43-.19.582.582,0,0,0,.18-.43V4.11A.353.353,0,0,0-53.813,3.92Zm-7.64-.17h-3.74l1.28-1.92h2.46Zm2.18,2.02h-1.45V4.49h1.45Zm0-2.02h-1.45V1.83h1.45Zm.73,0V1.83h2.46l1.28,1.92Zm-5.24,10.5a.218.218,0,0,1-.05.04v-.04Zm-3.74-3.89a2.5,2.5,0,0,0,2.34-.66,2.5,2.5,0,0,0,2.34.66c0,.07-.01.14-.01.21l-4.49,1.47A9.488,9.488,0,0,1-67.523,10.36Zm.68,3.1a4.991,4.991,0,0,1-.32-.71l4.25-1.39a6.454,6.454,0,0,1-.15.86Zm1.66,1.39a2.891,2.891,0,0,1-1.22-.77l3.1-1.02A3.11,3.11,0,0,1-65.183,14.85Z"/></g></svg>