<svg xmlns="http://www.w3.org/2000/svg" width="20.845" height="16.693" viewBox="0 0 20.845 16.693"><defs><style>.a{fill:#040405;}</style></defs><g transform="translate(0 -2.347)"><path class="a" d="M20.44,15.935a.4.4,0,0,1-.4-.4V6.6H7.714v5.128a.4.4,0,0,1-.8,0V6.2a.4.4,0,0,1,.4-.4H20.44a.4.4,0,0,1,.4.4v9.331A.4.4,0,0,1,20.44,15.935Z"/><path class="a" d="M20.444,6.65a.4.4,0,0,1-.345-.2l-1.957-3.3H9.614l-1.957,3.3a.4.4,0,1,1-.689-.408l2.073-3.5a.4.4,0,0,1,.344-.2h8.986a.4.4,0,0,1,.345.2l2.072,3.5a.4.4,0,0,1-.344.605Z"/><path class="a" d="M16.3,9.369H11.459a.4.4,0,0,1-.4-.4V6.2l.7-3.535a.4.4,0,0,1,.472-.314.4.4,0,0,1,.315.472l-.692,3.456.006,2.284H15.9V6.2l-.684-3.377A.4.4,0,0,1,16,2.669l.692,3.457L16.7,8.968A.4.4,0,0,1,16.3,9.369Zm-4.437-.4h0Z"/><path class="a" d="M3.109,17.659H.4a.4.4,0,0,1-.4-.4V10.35a.4.4,0,0,1,.147-.31A.393.393,0,0,1,.48,9.957l3.519.7a1.266,1.266,0,0,1,1,1.418l-.643,4.5A1.268,1.268,0,0,1,3.109,17.659ZM.8,16.858H3.109a.465.465,0,0,0,.458-.4l.642-4.5a.463.463,0,0,0-.368-.519L.8,10.839Z"/><path class="a" d="M12.292,16.328a15.1,15.1,0,0,1-4.058-.755.4.4,0,1,1,.227-.768c3.557,1.054,4.731.724,5.112.433a.629.629,0,0,0,.247-.559c-.009-.568-.792-.957-2.7-1.344a9.088,9.088,0,0,1-2-.692,4.237,4.237,0,0,0-1.8-.51,14.255,14.255,0,0,0-2.625.283.4.4,0,0,1-.161-.786,15.1,15.1,0,0,1,2.781-.3,4.974,4.974,0,0,1,2.136.579,8.234,8.234,0,0,0,1.837.638c1.678.341,3.319.784,3.344,2.115a1.429,1.429,0,0,1-.564,1.212A2.889,2.889,0,0,1,12.292,16.328Z"/><path class="a" d="M11.8,19.04c-2.5,0-7.726-2.439-7.947-2.543a.4.4,0,0,1,.34-.726c.053.025,5.285,2.468,7.607,2.468,1.675,0,5.932-1.925,7.749-2.746l.424-.19a2.535,2.535,0,0,0-1.952-.751,18.541,18.541,0,0,0-3.772,1.039.4.4,0,0,1-.294-.746,19.167,19.167,0,0,1,4-1.09h.016c1.414,0,2.867.681,2.867,1.778a.4.4,0,0,1-.24.367l-.721.323C17.7,17.208,13.648,19.04,11.8,19.04Z"/></g></svg>