<svg width="33" height="22" viewBox="0 0 33 22" fill="none" xmlns="http://www.w3.org/2000/svg">
<path d="M12.5021 20.7892H5.32536C4.8093 20.8042 4.30225 20.6493 3.88248 20.3488C3.46272 20.0482 3.15318 19.6185 3.00114 19.1251C2.18714 16.6991 1.37541 14.2753 0.566078 11.8546C0.386078 11.3256 0.600176 11.0353 1.16618 11.0353C6.19284 11.0293 11.2211 11.0274 16.2511 11.0294C21.2511 11.0294 26.2483 11.0313 31.2423 11.0353C31.3426 11.0303 31.4428 11.0347 31.5422 11.049C31.6245 11.0559 31.7039 11.0829 31.7731 11.1281C31.8424 11.1732 31.8995 11.2352 31.9391 11.3077C31.9788 11.3803 31.9996 11.4614 32.0002 11.5441C32.0007 11.6267 31.9807 11.7083 31.9421 11.7814C31.0291 13.4204 30.1812 15.1011 29.1642 16.6661C28.4543 17.7759 27.5059 18.7137 26.3883 19.4113C25.2708 20.1089 24.0121 20.549 22.7033 20.6993C22.2933 20.7586 21.8793 20.7886 21.465 20.7892H12.5021ZM10.3703 15.0431C10.3718 15.1519 10.3949 15.2596 10.4381 15.3595C10.4814 15.4594 10.5439 15.5495 10.6222 15.6251C10.7006 15.7007 10.7933 15.7603 10.8947 15.7999C10.9961 15.8396 11.1042 15.858 11.2131 15.8556C11.321 15.8555 11.4276 15.8341 11.527 15.7921C11.6264 15.7501 11.7164 15.6888 11.7917 15.6115C11.8669 15.5341 11.9258 15.4424 11.965 15.3419C12.0042 15.2414 12.0231 15.1334 12.0202 15.0255C12.0158 14.8101 11.9279 14.6051 11.7751 14.4532C11.6223 14.3014 11.4167 14.2151 11.2013 14.212C10.9816 14.2151 10.7715 14.303 10.6159 14.4581C10.4602 14.6132 10.3712 14.8234 10.3673 15.0431H10.3703ZM6.68034 15.0245C6.67888 15.1331 6.69885 15.2412 6.73942 15.3419C6.77999 15.4426 6.83987 15.5342 6.91618 15.6115C6.99248 15.6887 7.08355 15.7503 7.18375 15.7921C7.28396 15.8339 7.39159 15.8548 7.50016 15.8546C7.60858 15.857 7.71612 15.8386 7.81705 15.799C7.91799 15.7593 8.01026 15.6997 8.08805 15.6241C8.16584 15.5486 8.22808 15.4583 8.27067 15.3585C8.31325 15.2588 8.33533 15.1515 8.3361 15.0431C8.33404 14.8241 8.24674 14.6145 8.09245 14.4591C7.93815 14.3037 7.72889 14.2147 7.50993 14.2111H7.50211C7.28679 14.217 7.08171 14.3039 6.92838 14.4552C6.77505 14.6065 6.68473 14.8103 6.67594 15.0255L6.68034 15.0245ZM14.0651 15.046C14.066 15.1533 14.0881 15.2597 14.13 15.3585C14.172 15.4573 14.2331 15.5461 14.3097 15.6212C14.3864 15.6964 14.4772 15.756 14.5768 15.796C14.6764 15.8361 14.783 15.8558 14.8903 15.8546C14.999 15.8564 15.1069 15.8368 15.2077 15.796C15.3085 15.7552 15.4003 15.6942 15.4772 15.6173C15.5542 15.5405 15.6145 15.4495 15.6554 15.3488C15.6963 15.248 15.7166 15.1401 15.715 15.0314C15.7106 14.8144 15.6223 14.6072 15.4684 14.4542C15.3145 14.3012 15.1073 14.2141 14.8903 14.2111C14.6704 14.2145 14.4601 14.3038 14.3053 14.4601C14.1506 14.6164 14.0635 14.8271 14.0622 15.047L14.0651 15.046ZM4.01823 10.6906C4.01323 10.6126 4.007 10.5446 4.007 10.4796V7.53137C4.007 7.08637 4.19302 6.89954 4.65202 6.89954C7.89402 6.89954 11.1367 6.89768 14.38 6.89368C14.5165 6.88437 14.6527 6.91865 14.7692 6.99036C14.8857 7.06206 14.9767 7.16801 15.0299 7.29407C15.5529 8.35807 16.093 9.41271 16.63 10.4757C16.659 10.5347 16.6821 10.5946 16.7301 10.6866L4.01823 10.6906ZM6.33121 6.56555V3.25696H9.66129V6.56555H6.33121ZM6.33121 2.4425V0.500122H9.65495V2.4425H6.33121Z" fill="#080808"/>
</svg>
