<svg width="24" height="21" viewBox="0 0 24 21" fill="none" xmlns="http://www.w3.org/2000/svg">
<path d="M19.4375 8.3125C20.5312 8.3125 21.5078 8.54688 22.2891 8.97656C23.0703 9.40625 23.5 9.91406 23.5 10.5C23.5 11.125 23.0703 11.6328 22.2891 12.0625C21.5078 12.4922 20.5312 12.6875 19.4375 12.6875H15.0625L11 20.2656C10.8828 20.4219 10.7656 20.5 10.6094 20.5H8.34375C8.1875 20.5 8.03125 20.4609 7.95312 20.3438C7.875 20.2266 7.83594 20.0703 7.875 19.9141L9.20312 12.6875H4.90625L3.53906 14.9531C3.42188 15.1094 3.30469 15.1875 3.14844 15.1875H1.46875C1.3125 15.1875 1.15625 15.1484 1.07812 15.0312C1 14.9141 0.960938 14.7969 1 14.6406L1.82031 10.5L1 6.35938C0.960938 6.24219 1 6.125 1.07812 6.00781C1.15625 5.89062 1.3125 5.8125 1.46875 5.8125H3.14844C3.30469 5.8125 3.42188 5.89062 3.53906 6.04688L4.90625 8.3125H9.20312L7.875 1.08594C7.83594 0.929688 7.875 0.8125 7.95312 0.695312C8.03125 0.578125 8.1875 0.5 8.34375 0.5H10.6094C10.7656 0.5 10.8828 0.578125 11 0.734375L15.0625 8.3125H19.4375Z" fill="black"/>
</svg>
