<svg width="8" height="8" viewBox="0 0 8 8" fill="none" xmlns="http://www.w3.org/2000/svg">
<path d="M7.85547 6.89062L4.57422 1.20312C4.49219 1.06641 4.36914 0.970703 4.21875 0.916016C4.06836 0.861328 3.91797 0.861328 3.76758 0.916016C3.61719 0.970703 3.50781 1.06641 3.42578 1.20312L0.144531 6.89062C0.0625 7.04102 0.0488281 7.19141 0.0761719 7.3418C0.103516 7.49219 0.171875 7.61523 0.294922 7.72461C0.404297 7.83398 0.554688 7.875 0.71875 7.875H7.28125C7.44531 7.875 7.58203 7.83398 7.70508 7.72461C7.81445 7.61523 7.89648 7.49219 7.92383 7.3418C7.95117 7.19141 7.92383 7.04102 7.85547 6.89062ZM4 5.71484C4.16406 5.71484 4.31445 5.7832 4.4375 5.90625C4.56055 6.0293 4.62891 6.17969 4.62891 6.34375C4.62891 6.52148 4.56055 6.67188 4.4375 6.79492C4.31445 6.91797 4.16406 6.97266 4 6.97266C3.82227 6.97266 3.67188 6.91797 3.54883 6.79492C3.42578 6.67188 3.37109 6.52148 3.37109 6.34375C3.37109 6.17969 3.42578 6.0293 3.54883 5.90625C3.67188 5.7832 3.82227 5.71484 4 5.71484ZM3.39844 3.45898C3.39844 3.4043 3.41211 3.36328 3.43945 3.33594C3.4668 3.30859 3.50781 3.28125 3.5625 3.28125H4.4375C4.47852 3.28125 4.51953 3.30859 4.54688 3.33594C4.57422 3.36328 4.60156 3.4043 4.60156 3.45898L4.49219 5.31836C4.49219 5.35938 4.46484 5.40039 4.4375 5.42773C4.41016 5.45508 4.36914 5.46875 4.32812 5.46875H3.67188C3.61719 5.46875 3.57617 5.45508 3.54883 5.42773C3.52148 5.40039 3.50781 5.35938 3.50781 5.31836L3.39844 3.45898Z" fill="black"/>
</svg>
