<svg width="45" height="32" viewBox="0 0 45 32" fill="none" xmlns="http://www.w3.org/2000/svg">
<path d="M30.1946 29.694H28.3176V16.9411L16.1934 10.5322L17.0702 8.87744L30.1946 15.814V29.694Z" fill="black"/>
<path d="M42.3233 10.5305L41.4478 8.87402L28.8202 15.5484L29.6958 17.2049L42.3233 10.5305Z" fill="black"/>
<path d="M36.0085 7.19994L35.1329 5.54346L22.5054 12.2178L23.3809 13.8743L36.0085 7.19994Z" fill="black"/>
<path d="M29.2584 30.7515L15.6973 23.5904V9.13909L29.2584 1.97461L42.8195 9.13909V23.5904L29.2584 30.7515ZM17.571 22.4599L29.2595 28.6343L40.9481 22.4599V10.2696L29.2595 4.09521L17.571 10.2696V22.4599Z" fill="black"/>
<path d="M14.5322 12.7989L14.5322 10.9253L0.24929 10.9253L0.24929 12.7989L14.5322 12.7989Z" fill="black"/>
<path d="M14.75 17.4504L14.75 15.2754L3.15 15.2754L3.15 17.4504L14.75 17.4504Z" fill="black"/>
<path d="M14.75 21.8005L14.75 19.6255L6.05 19.6255L6.05 21.8005L14.75 21.8005Z" fill="black"/>
</svg>
