<svg width="8" height="6" viewBox="0 0 8 6" fill="none" xmlns="http://www.w3.org/2000/svg">
<path d="M6.8125 0.296875C6.84375 0.265625 6.875 0.25 6.9375 0.25C6.98438 0.25 7.03125 0.265625 7.07812 0.296875L7.51562 0.75C7.54688 0.78125 7.57812 0.828125 7.57812 0.875C7.57812 0.9375 7.54688 0.984375 7.51562 1.01562L2.82812 5.70312C2.79688 5.73438 2.75 5.75 2.70312 5.75C2.64062 5.75 2.59375 5.73438 2.5625 5.70312L0.484375 3.60938C0.4375 3.57812 0.421875 3.54688 0.421875 3.48438C0.421875 3.4375 0.4375 3.39062 0.484375 3.34375L0.921875 2.90625C0.953125 2.875 1 2.84375 1.0625 2.84375C1.10938 2.84375 1.15625 2.875 1.1875 2.90625L2.70312 4.42188L6.8125 0.296875Z" fill="black"/>
</svg>
