<svg xmlns="http://www.w3.org/2000/svg" width="30" height="27.577" viewBox="0 0 30 27.577"><defs><style>.a{fill:#090909;}.b{isolation:isolate;}</style></defs><g transform="translate(0 -1.113)"><g transform="translate(0 1.113)"><path class="a" d="M12.229,1.113a.432.432,0,0,0-.144.052L7.642,3.529l-.02.01-1.763.927-1.478.784-.01.01L.213,7.463l-.03.02a.268.268,0,0,0-.04.03l-.02.02-.01.01a.456.456,0,0,0-.042.05V7.6a.569.569,0,0,0-.04.062v.01A.4.4,0,0,0,0,7.83V21.455a.417.417,0,0,0,.2.355l11.76,6.807.01.012h.01a.492.492,0,0,0,.062.03.405.405,0,0,0,.092.02l.03.01h.01a.4.4,0,0,0,.122-.02l.02-.01.03-.01a.351.351,0,0,0,.04-.02l.04-.02.012-.01L19.1,24.746a5.674,5.674,0,1,0,5.319-7.877l-.04.01V7.92a.42.42,0,0,0-.2-.469L12.462,1.163a.4.4,0,0,0-.194-.05h-.039Zm.04.876L23.144,7.83,19.628,9.858,8.671,3.905ZM7.8,4.364l11,5.971-2.477,1.426L5.411,5.631,6.5,5.058,7.8,4.364ZM4.554,6.085h.012l10.957,6.147-3.333,1.926L1.252,7.838l3.3-1.753ZM.815,8.532,11.78,14.87v12.7L.815,21.22Zm22.745,0v8.386a5.665,5.665,0,0,0-4.728,7.043L12.594,27.57V14.87l3.2-1.854.05,2.2a.431.431,0,0,0,.622.337L19.8,13.605a.421.421,0,0,0,.2-.357l.01-2.67,3.546-2.048ZM19.2,11.059l-.01,1.966L16.64,14.5l-.04-1.949,2.6-1.5Zm5.065,5.809c-.168,0-.335.014-.5.03.164-.014.331-.029.5-.03Zm.02.825h.052a.424.424,0,0,0,.06,0,4.883,4.883,0,1,1-.114,0Z" transform="translate(0 -1.113)"/></g><g class="b" transform="translate(22.121 20.647)"><g class="b"><path class="a" d="M17.733,16.73l1.688,1.687a.182.182,0,0,1,.036.111.134.134,0,0,1-.036.1l-.111.111a.136.136,0,0,1-.1.036.182.182,0,0,1-.111-.036l-1.687-1.7-1.687,1.7a.179.179,0,0,1-.111.036.133.133,0,0,1-.1-.036l-.111-.111a.135.135,0,0,1-.037-.1.184.184,0,0,1,.037-.111l1.7-1.687-1.7-1.687a.181.181,0,0,1-.037-.111.133.133,0,0,1,.037-.1l.111-.111a.133.133,0,0,1,.1-.037.181.181,0,0,1,.111.037l1.687,1.687L19.1,14.723a.184.184,0,0,1,.111-.037.137.137,0,0,1,.1.037l.111.111a.133.133,0,0,1,.036.1.179.179,0,0,1-.036.111Z" transform="translate(-15.37 -14.686)"/></g></g></g></svg>