<svg width="88" height="73" viewBox="0 0 88 73" fill="none" xmlns="http://www.w3.org/2000/svg">
<path d="M69.796 35.7397C64.9729 35.7511 60.351 37.6736 56.9426 41.086C53.5342 44.4984 51.6172 49.1227 51.6115 53.9457C51.6115 54.4836 51.6438 55.0214 51.6868 55.5593L42.9522 59.5931V28.0647L51.5577 38.9991C51.7108 39.1927 51.9259 39.3278 52.1668 39.3816C52.4077 39.4355 52.6598 39.4049 52.8808 39.2949L71.3934 30.0386V35.8043C72.1162 35.856 72.8348 35.9548 73.5448 36.1001V28.9629L81.5533 24.9613C81.6913 24.8924 81.813 24.7946 81.9099 24.6746C82.0068 24.5545 82.0768 24.415 82.1151 24.2656C82.1533 24.1161 82.159 23.9601 82.1317 23.8083C82.1043 23.6564 82.0446 23.5122 81.9567 23.3854L73.3512 10.9613C73.3312 10.9349 73.3097 10.9097 73.2866 10.886L73.2436 10.8322L73.1629 10.773C73.1365 10.7487 73.1076 10.7271 73.0769 10.7085L72.9908 10.6654L72.9047 10.6224L42.2046 0.048405H42.1723C42.0778 0.0209616 41.9803 0.00471706 41.8819 1.01938e-06C41.7813 -0.000148732 41.6814 0.0162017 41.5861 0.048405H41.5538L9.06269 10.5633H9.02504C8.98645 10.5771 8.94873 10.5933 8.91209 10.6117L8.83142 10.6547L8.73998 10.7192L8.66468 10.7784L8.58938 10.8591L8.52484 10.9344L8.47105 11.0258L8.42803 11.0903L0.166753 24.0362C0.0851357 24.1652 0.0318925 24.31 0.0105605 24.4612C-0.0107715 24.6123 0.000294905 24.7662 0.0430267 24.9127C0.0857586 25.0592 0.159172 25.195 0.258399 25.3109C0.357626 25.4269 0.480394 25.5204 0.61854 25.5852L8.28819 29.1942V45.9803C8.28823 46.1845 8.34641 46.3845 8.45595 46.5569C8.56548 46.7293 8.72183 46.867 8.90671 46.9538L41.3925 62.2231L41.5 62.2608H41.5646H41.613C41.6737 62.269 41.7352 62.269 41.7959 62.2608H41.9303H42.1024H42.1455H42.21L42.3176 62.2231L51.9988 57.7483C52.7245 61.1066 54.3858 64.1911 56.7906 66.6451C59.1953 69.0992 62.2454 70.8226 65.5884 71.6163C68.9314 72.41 72.4307 72.2415 75.6819 71.1303C78.9332 70.0191 81.8036 68.0106 83.9615 65.3369C86.1194 62.6632 87.4766 59.4334 87.8764 56.0209C88.2761 52.6083 87.702 49.1523 86.2205 46.0523C84.7389 42.9522 82.4104 40.3347 79.5039 38.5022C76.5975 36.6697 73.2319 35.6971 69.796 35.6967V35.7397ZM42.9307 2.57089L69.4787 11.7142L42.9307 23.3263V2.57089ZM40.7793 23.3478L12.4834 11.6981L40.7793 2.55476V23.3478ZM52.6872 36.9768L43.5438 25.3808L72.0496 12.9136L79.4395 23.5898L52.6872 36.9768ZM9.80491 12.9244L40.4297 25.5368L34.2768 39.0367L10.0254 27.6237C9.90602 27.5316 9.76859 27.4656 9.62204 27.43L2.63007 24.1546L9.80491 12.9244ZM10.4557 30.2053L23.1596 36.1915C19.8845 38.6519 17.034 41.6315 14.7208 45.0121L38.6387 56.2692V34.621L40.7901 29.9203V59.5769L10.4503 45.2972L10.4557 30.2053ZM69.8121 70.0057C66.6366 70.0057 63.5324 69.064 60.8921 67.2997C58.2518 65.5353 56.194 63.0276 54.9791 60.0937C53.7641 57.1598 53.4465 53.9315 54.0664 50.817C54.6863 47.7026 56.2159 44.8419 58.4617 42.5969C60.7075 40.3518 63.5687 38.8232 66.6833 38.2043C69.798 37.5854 73.0262 37.9041 75.9597 39.1201C78.8932 40.3361 81.4002 42.3947 83.1637 45.0355C84.9271 47.6764 85.8678 50.781 85.8668 53.9565C85.8582 58.2131 84.1613 62.2925 81.1484 65.2994C78.1354 68.3063 74.0527 69.995 69.796 69.995L69.8121 70.0057Z" fill="#8C8C8C"/>
<path d="M70.0488 60.8623H69.7369C69.4571 60.848 69.1774 60.8908 68.9147 60.988C68.652 61.0852 68.4119 61.2348 68.2088 61.4277C68.0058 61.6207 67.8441 61.8529 67.7336 62.1103C67.6231 62.3677 67.5662 62.6448 67.5662 62.9249C67.5662 63.205 67.6231 63.4822 67.7336 63.7396C67.8441 63.997 68.0058 64.2292 68.2088 64.4221C68.4119 64.6151 68.652 64.7647 68.9147 64.8619C69.1774 64.9591 69.4571 65.0019 69.7369 64.9876H70.0488C70.5776 64.9606 71.0759 64.7315 71.4406 64.3476C71.8054 63.9638 72.0088 63.4545 72.0088 62.9249C72.0088 62.3954 71.8054 61.8861 71.4406 61.5023C71.0759 61.1184 70.5776 60.8893 70.0488 60.8623Z" fill="#8C8C8C"/>
<path d="M70.3175 43.8289C68.4004 43.8419 66.5228 44.3755 64.8853 45.3725C64.7508 45.4555 64.635 45.5654 64.5451 45.6953C64.4552 45.8253 64.3931 45.9724 64.3628 46.1275C64.3325 46.2826 64.3346 46.4422 64.369 46.5965C64.4034 46.7507 64.4693 46.8961 64.5626 47.0237L64.9283 47.5615C65.0954 47.7944 65.3423 47.9576 65.6221 48.0201C65.9018 48.0826 66.1947 48.0399 66.445 47.9003C67.253 47.4222 68.1604 47.137 69.0966 47.0667C70.5434 47.0667 71.4846 47.8035 71.4846 48.9437C71.4846 51.0575 68.6072 53.0314 68.1339 56.5327C68.1202 56.6564 68.1329 56.7816 68.171 56.9001C68.2092 57.0185 68.272 57.1276 68.3553 57.22C68.4386 57.3125 68.5406 57.3862 68.6544 57.4365C68.7683 57.4868 68.8915 57.5123 69.0159 57.5116H70.7693C70.9646 57.5094 71.1537 57.4429 71.3073 57.3223C71.461 57.2018 71.5706 57.0339 71.6191 56.8447C72.4205 53.9457 75.9541 51.9449 75.9541 48.3683C75.9541 45.55 73.1627 43.8289 70.3175 43.8289Z" fill="#8C8C8C"/>
</svg>
