<svg xmlns="http://www.w3.org/2000/svg" width="74.325" height="54.591" viewBox="0 0 74.325 54.591"><defs><style>.a{fill:#040405;stroke:rgba(0,0,0,0);stroke-miterlimit:10;}</style></defs><path class="a" d="M-2271.32,180.59a1.562,1.562,0,0,1-.5-.077,1.762,1.762,0,0,1-.7-.419,1.676,1.676,0,0,1-.486-1.185V128.681A1.679,1.679,0,0,1-2271.32,127h69.965a1.686,1.686,0,0,1,1.68,1.681v50.228a1.638,1.638,0,0,1-.5,1.185,1.707,1.707,0,0,1-.688.419,1.55,1.55,0,0,1-.494.077Zm0-1.681h69.965V141.157h-69.974Zm-.009-38.592h69.974V128.681h-69.974Zm19.766,19.38a15.863,15.863,0,0,1,15.862-15.863,15.877,15.877,0,0,1,15.862,15.863,15.861,15.861,0,0,1-15.862,15.861A15.863,15.863,0,0,1-2251.563,159.7Zm.941,0a14.874,14.874,0,0,0,4.016,10.168,14.869,14.869,0,0,0,21.017.688l-3.026-3.026a4.79,4.79,0,0,1-4.161,2.427h-5.7a4.687,4.687,0,0,1-4.561-3.421,19.339,19.339,0,0,1-.545-6.247c0-1.288.05-2.923,0-5.1a1.93,1.93,0,0,1,.941-1.681l-3.963-3.968A14.846,14.846,0,0,0-2250.623,159.7Zm21.074-3.768a2.184,2.184,0,0,1,1.681,2.182V164.5a6.969,6.969,0,0,1-.3,2.033l3.321,3.321,0,.007a14.643,14.643,0,0,0,4.063-10.16,14.911,14.911,0,0,0-4.015-10.192,14.9,14.9,0,0,0-21.065-.711l4.409,4.4a2.172,2.172,0,0,1,.743.249v-.2a1.933,1.933,0,0,1,.239-.99,1.909,1.909,0,0,1,2.595-.744v-.249a1.886,1.886,0,0,1,1.887-1.881,1.992,1.992,0,0,1,.207.01,1.931,1.931,0,0,1,1.724,2.12,2.081,2.081,0,0,1,1.337-.2,1.971,1.971,0,0,1,1.538,1.932v2.98a2.056,2.056,0,0,1,1.153-.355A2.03,2.03,0,0,1-2229.548,155.929Zm-13.044-.746c.051,2.183.051,3.819,0,5.109a18.458,18.458,0,0,0,.5,5.949,3.867,3.867,0,0,0,3.668,2.775h5.748a3.8,3.8,0,0,0,3.422-2.182l-7.583-7.636v.747a.469.469,0,0,1-.5.439.5.5,0,0,1-.5-.5v-1.68l-1.884-1.884v2.864a.5.5,0,0,1-.519.475.5.5,0,0,1-.474-.517V155.38l-1.139-1.139A.916.916,0,0,0-2242.592,155.183Zm8.526-1.936v7.392l5.106,5.056a5.42,5.42,0,0,0,.149-1.24v-6.4a1.239,1.239,0,0,0-.941-1.239,1.208,1.208,0,0,0-.212-.018,1.214,1.214,0,0,0-1.225,1.209v4.3a.5.5,0,0,1-.517.475.492.492,0,0,1-.474-.516v-4.215l0,0V153.3a.969.969,0,0,0-.743-.991.925.925,0,0,0-.2-.021A.948.948,0,0,0-2234.066,153.247Zm-2.821-1.878v6.445L-2235,159.7v-8.305a.943.943,0,0,0-.93-.955h-.01A.942.942,0,0,0-2236.887,151.368Zm-2,.922a.944.944,0,0,0-.872,1.009v1.68l1.884,1.884v-3.616c0-.025,0-.053,0-.082a.943.943,0,0,0-.942-.877C-2238.845,152.288-2238.868,152.288-2238.89,152.29Zm-22.57-17.765a1.881,1.881,0,0,1,1.881-1.88,1.88,1.88,0,0,1,1.88,1.88,1.881,1.881,0,0,1-1.88,1.881A1.881,1.881,0,0,1-2261.461,134.525Zm-5.885,0a1.88,1.88,0,0,1,1.88-1.88,1.88,1.88,0,0,1,1.88,1.88,1.881,1.881,0,0,1-1.88,1.881A1.881,1.881,0,0,1-2267.346,134.525Zm11.768,0a1.879,1.879,0,0,1,1.878-1.879,1.879,1.879,0,0,1,1.879,1.879,1.879,1.879,0,0,1-1.879,1.878A1.878,1.878,0,0,1-2255.577,134.526Z" transform="translate(2273.5 -126.5)"/></svg>