<!-- Generated by IcoMoon.io -->
<svg version="1.1" xmlns="http://www.w3.org/2000/svg" width="1024" height="1024" viewBox="0 0 1024 1024">
<title></title>
<g id="icomoon-ignore">
</g>
<path fill="#000" d="M109.696 1010.048c-0.013 0-0.028 0-0.043 0-13.432 0-24.32-10.888-24.32-24.32 0 0 0 0 0 0v0-537.941c0.444-3.467 1.561-6.598 3.218-9.368l-0.061 0.11v-1.451l97.323-145.963c4.402-6.589 11.781-10.89 20.17-10.965h97.376c0 0 0 0 0 0 13.432 0 24.32 10.888 24.32 24.32 0 0.015 0 0.030 0 0.045v-0.002c0 13.432-10.888 24.32-24.32 24.32v0h-84.181l-64.981 97.323h736.256l-64.939-97.323h-84.224c-13.422-0.024-24.296-10.898-24.32-24.318v-0.002c0 0 0 0 0 0 0-13.44 10.883-24.338 24.318-24.363h97.367c0.156-0.004 0.34-0.006 0.524-0.006 8.761 0 16.444 4.617 20.749 11.55l0.060 0.104 97.28 146.005v1.451c1.572 2.586 2.698 5.623 3.184 8.869l0.016 0.134v537.6c0 0 0 0 0 0 0 13.432-10.888 24.32-24.32 24.32-0.015 0-0.030 0-0.045 0h0.002zM133.035 961.408h778.581v-486.656h-778.581zM741.291 864.085c-13.432 0-24.32-10.888-24.32-24.32v0c0-0.013 0-0.028 0-0.043 0-13.432 10.888-24.32 24.32-24.32 0 0 0 0 0 0h48.683c0 0 0 0 0 0 13.432 0 24.32 10.888 24.32 24.32 0 0.015 0 0.030 0 0.045v-0.002c0 13.432-10.888 24.32-24.32 24.32v0zM502.997 273.835v-188.8l-58.581 57.216c-4.697 4.534-11.1 7.327-18.155 7.327s-13.458-2.793-18.162-7.335l0.008 0.007c-4.665-4.453-7.565-10.72-7.565-17.664s2.9-13.211 7.555-17.655l0.009-0.009 102.4-99.499c4.667-4.54 11.047-7.339 18.080-7.339 0.034 0 0.067 0 0.101 0h-0.005c0.057 0 0.124-0.001 0.191-0.001 6.99 0 13.326 2.801 17.945 7.343l-0.004-0.004 102.4 99.499c4.676 4.449 7.586 10.716 7.595 17.662v0.002c-0.019 6.946-2.927 13.21-7.585 17.655l-0.010 0.009c-4.667 4.539-11.047 7.339-18.080 7.339-0.019 0-0.037 0-0.056 0h0.003c-0.008 0-0.017 0-0.027 0-7.055 0-13.457-2.798-18.156-7.346l0.007 0.007-58.539-57.216v188.8c-0.191 13.78-11.406 24.878-25.214 24.878-0.136 0-0.271-0.001-0.407-0.003h0.020c-0.166 0.004-0.361 0.006-0.557 0.006-13.832 0-25.067-11.118-25.256-24.906v-0.018z"></path>
</svg>
