<svg xmlns="http://www.w3.org/2000/svg" width="71.193" height="52.295" viewBox="0 0 71.193 52.295"><defs><style>.a{fill:rgba(0,0,0,0);}.a,.b{stroke:rgba(0,0,0,0);stroke-miterlimit:10;}.b{fill:#040405;}</style></defs><g transform="translate(38.373 0.504)"><path class="a" d="M-2706.024-1428.5H-2773v-11.118h66.978v11.117Z" transform="translate(2736.726 1441.239)"/><path class="b" d="M-2807.657-1386.708a1.6,1.6,0,0,1-1.622-1.595v-48.081a1.62,1.62,0,0,1,1.622-1.619h66.953a1.618,1.618,0,0,1,1.619,1.619v48.081a1.6,1.6,0,0,1-1.619,1.595Zm0-1.595h66.953v-36.153h-66.977Zm-.024-36.964h66.977v-11.117h-66.977Zm33.277,23.342c-11.04,0-22.236,3.841-22.347,3.878l-.264-.76c.112-.039,11.433-3.924,22.612-3.924s22.494,3.885,22.609,3.924l-.266.76C-2752.175-1398.083-2763.367-1401.925-2774.4-1401.925Zm17.059-8.125-3.165-3.165-3.189,3.165a.748.748,0,0,1-.565.248.715.715,0,0,1-.566-.248.783.783,0,0,1,0-1.126l3.192-3.17-3.192-3.19a.785.785,0,0,1,0-1.128.787.787,0,0,1,1.131,0l3.189,3.191,3.165-3.191a.784.784,0,0,1,1.129,0,.782.782,0,0,1,0,1.128l-3.165,3.19,3.165,3.17a.78.78,0,0,1,0,1.126.74.74,0,0,1-.563.248A.75.75,0,0,1-2757.345-1410.05Zm-28.174,0-3.167-3.165-3.165,3.165a.8.8,0,0,1-.59.248.784.784,0,0,1-.563-.248.781.781,0,0,1,0-1.126l3.19-3.17-3.19-3.19a.783.783,0,0,1,0-1.128.814.814,0,0,1,1.154,0l3.165,3.167,3.167-3.167a.813.813,0,0,1,1.153,0,.831.831,0,0,1,0,1.128l-3.165,3.19,3.165,3.17a.828.828,0,0,1,0,1.126.8.8,0,0,1-.589.248A.778.778,0,0,1-2785.52-1410.05Zm-18.361-20.748a1.8,1.8,0,0,1,1.8-1.8,1.8,1.8,0,0,1,1.8,1.8,1.8,1.8,0,0,1-1.8,1.8A1.8,1.8,0,0,1-2803.881-1430.8Zm11.7,0c0-.995.6-1.8,1.349-1.8s1.353.806,1.353,1.8-.606,1.8-1.353,1.8S-2792.181-1429.8-2792.181-1430.8Zm-6.3,0a1.8,1.8,0,0,1,1.8-1.8,1.8,1.8,0,0,1,1.8,1.8,1.8,1.8,0,0,1-1.8,1.8A1.8,1.8,0,0,1-2798.481-1430.8Z" transform="translate(2771.406 1438)"/></g></svg>