<svg xmlns="http://www.w3.org/2000/svg" width="25.847" height="25.847" viewBox="0 0 25.847 25.847"><defs><style>.a{fill:#080808;}</style></defs><g transform="translate(0 0)"><path class="a" d="M37.646,47.032a.6.6,0,0,1-.143,0,.552.552,0,0,1-.335-.259l-5.98-10.536a.549.549,0,0,1,.121-.692L36,31.527a.545.545,0,0,1,.884.275l3.54,13.234a.551.551,0,0,1-.259.616L37.916,46.96A.553.553,0,0,1,37.646,47.032ZM32.37,36.089l5.5,9.64,1.429-.818-3.2-11.981Z" transform="translate(-15.696 -22.535)"/><path class="a" d="M27.413,32.509a.54.54,0,0,1-.269-.071l-10.519-6a.548.548,0,0,1-.2-.753l1.308-2.248a.549.549,0,0,1,.615-.258l13.251,3.539a.549.549,0,0,1-.286,1.061L18.471,24.331l-.819,1.429,10.035,5.716a.55.55,0,0,1-.274,1.028Z" transform="translate(-15.002 -22.058)"/><path class="a" d="M23.255,47.858a.77.77,0,0,1-.148,0,.546.546,0,0,1-.349-.306l-1.831-4.1-1.547-1.545-4.1-1.829a.549.549,0,0,1-.224-.824l.765-1.136a.548.548,0,0,1,.508-.234l4.669.5,11.48-13.449a10.147,10.147,0,0,1,4.133-2.479,10,10,0,0,1,3.663-.415.545.545,0,0,1,.508.513,10.318,10.318,0,0,1-.464,3.7,10.548,10.548,0,0,1-2.372,4.025l-.044.038-1.886,1.61a.547.547,0,1,1-.732-.814h0l1.864-1.588a9.433,9.433,0,0,0,2.142-3.615,9.254,9.254,0,0,0,.433-2.817,8.9,8.9,0,0,0-6.429,2.571L21.614,39.312a.547.547,0,0,1-.47.191l-4.6-.486-.224.322,3.6,1.6a.579.579,0,0,1,.165.115l1.689,1.688a.544.544,0,0,1,.115.164L23.489,46.5l.323-.224-.5-4.615a.547.547,0,0,1,.191-.475l5.871-5.018,1.242-1.064a.546.546,0,1,1,.71.83L30.088,37.03l-5.653,4.795.5,4.658a.546.546,0,0,1-.235.508l-1.137.764A.512.512,0,0,1,23.255,47.858Z" transform="translate(-14.95 -22.014)"/><path class="a" d="M27.629,26.351a.547.547,0,0,1-.39-.935l.39-.39a.55.55,0,0,1,.835.715.582.582,0,0,1-.06.06l-.385.391A.553.553,0,0,1,27.629,26.351Z" transform="translate(-15.472 -22.12)"/><path class="a" d="M23.6,25.53a.55.55,0,0,1-.394-.936l0,0,.77-.791a.549.549,0,0,1,.834.715.582.582,0,0,1-.06.06l-.775.781A.551.551,0,0,1,23.6,25.53Z" transform="translate(-15.299 -22.074)"/><path class="a" d="M38.13,36.883a.549.549,0,0,1-.39-.939l.39-.385a.549.549,0,0,1,.775.775l-.39.391A.55.55,0,0,1,38.13,36.883Z" transform="translate(-15.938 -22.607)"/><path class="a" d="M38.935,40.865a.55.55,0,0,1-.393-.936l0,0,.781-.775a.558.558,0,0,1,.791.786h0l-.775.781A.553.553,0,0,1,38.935,40.865Z" transform="translate(-15.969 -22.766)"/><path class="a" d="M29.65,35.46a.55.55,0,0,1-.363-.967l5.831-5.051a.55.55,0,0,1,.746.807l-.026.022-5.831,5.051A.543.543,0,0,1,29.65,35.46Z" transform="translate(-15.58 -22.347)"/><path class="a" d="M22.46,41.994a.55.55,0,0,1-.393-.936l0,0,1.1-1.1a.552.552,0,0,1,.781.781h0l-1.1,1.1A.55.55,0,0,1,22.46,41.994Z" transform="translate(-15.25 -22.803)"/></g></svg>