<svg xmlns="http://www.w3.org/2000/svg" width="20.758" height="17.996" viewBox="0 0 20.758 17.996"><defs><style>.a{fill:#040405;}</style></defs><path class="a" d="M-2481.043-337h-17.205A1.761,1.761,0,0,1-2500-338.72a1.661,1.661,0,0,1,.188-.768c1.392-2.693,3.724-6.518,5.783-9.89,1.076-1.765,2.093-3.433,2.829-4.7a1.814,1.814,0,0,1,.692-.69,1.8,1.8,0,0,1,1.378-.164,1.8,1.8,0,0,1,1.091.859c.733,1.262,1.749,2.928,2.825,4.691,2.06,3.375,4.393,7.2,5.785,9.9a1.631,1.631,0,0,1,.187.757A1.764,1.764,0,0,1-2481-337Zm-9.114-17.134a1.078,1.078,0,0,0-.417.418c-.743,1.278-1.761,2.948-2.841,4.716-2.052,3.363-4.377,7.177-5.758,9.849a.923.923,0,0,0-.107.428,1.04,1.04,0,0,0,1.04,1h.024l17.182,0a1.053,1.053,0,0,0,1.072-1.012.923.923,0,0,0-.105-.415v0c-1.382-2.673-3.708-6.486-5.761-9.851-1.078-1.767-2.1-3.436-2.836-4.709a1.09,1.09,0,0,0-.66-.522,1.081,1.081,0,0,0-.3-.041A1.082,1.082,0,0,0-2490.157-354.138Zm-.17,14.009a.707.707,0,0,1,.707-.706.707.707,0,0,1,.706.706.707.707,0,0,1-.706.707A.707.707,0,0,1-2490.327-340.129Zm.347-2.073v-8.291a.36.36,0,0,1,.36-.36.36.36,0,0,1,.36.36v8.291a.36.36,0,0,1-.36.36A.36.36,0,0,1-2489.98-342.2Z" transform="translate(2500 355)"/></svg>