<svg xmlns="http://www.w3.org/2000/svg" width="15.099" height="20.883" viewBox="0 0 15.099 20.883"><defs><style>.a{fill:#040405;}</style></defs><path class="a" d="M-2555.575-338.4h-5.066a1.363,1.363,0,0,1-1.359-1.363v-13.872a1.362,1.362,0,0,1,1.359-1.363h6.59a.334.334,0,0,1,.228.094l3.469,3.469a.34.34,0,0,1,.094.229v8.384a.278.278,0,0,1-.032.135,4.351,4.351,0,0,1,3.392,4.235,4.342,4.342,0,0,1-4.337,4.338A4.34,4.34,0,0,1-2555.575-338.4Zm.643-.052a3.7,3.7,0,0,0,3.694,3.694,3.7,3.7,0,0,0,3.695-3.694,3.7,3.7,0,0,0-3.695-3.695A3.7,3.7,0,0,0-2554.933-338.455Zm-6.216-15.693a.724.724,0,0,0-.209.508v13.875a.716.716,0,0,0,.716.719h5.108a4.344,4.344,0,0,1,4.295-3.746,3,3,0,0,1,.337.016.3.3,0,0,1,0-.049v-8.062h-2.107a1.369,1.369,0,0,1-1.363-1.364v-2.107h-6.268A.721.721,0,0,0-2561.149-354.148Zm7.418,1.9a.722.722,0,0,0,.72.72h1.652l-2.372-2.374Zm1.156,15.807-1.272-1.271a.322.322,0,0,1,0-.454.323.323,0,0,1,.455,0l1.044,1.044,2.951-2.95a.319.319,0,0,1,.454,0,.321.321,0,0,1,0,.454l-3.178,3.178a.322.322,0,0,1-.227.095A.319.319,0,0,1-2552.575-336.443Z" transform="translate(2562 355)"/></svg>