<!-- Generated by IcoMoon.io -->
<svg version="1.1" xmlns="http://www.w3.org/2000/svg" width="1024" height="1024" viewBox="0 0 1024 1024">
<title></title>
<g id="icomoon-ignore">
</g>
<path fill="#000" d="M954.112 128c-38.602 0.049-69.882 31.329-69.931 69.926v0.005c0 0.076 0 0.166 0 0.255 0 16.866 6.116 32.303 16.251 44.215l-0.080-0.097-106.027 191.701c-5.141-1.436-11.045-2.261-17.141-2.261-0.049 0-0.098 0-0.147 0h0.007c-16.754 0.063-32.107 6.011-44.11 15.883l0.121-0.097-70.315-46.251c4.614-9.091 7.372-19.802 7.509-31.145v-0.045c0-0.037 0-0.080 0-0.123 0-38.622-31.309-69.931-69.931-69.931s-69.931 31.309-69.931 69.931c0 19.267 7.792 36.715 20.397 49.363l-0.002-0.002-112.043 212.779c-4.61-1.145-9.914-1.827-15.369-1.877h-0.033c-0.094 0-0.204-0.001-0.315-0.001-9.391 0-18.332 1.93-26.447 5.415l0.436-0.167-92.117-95.104c7.296-10.7 11.65-23.913 11.65-38.143 0-0.195-0.001-0.39-0.002-0.585v0.030c-0.067-38.571-31.35-69.813-69.931-69.813-38.622 0-69.931 31.309-69.931 69.931 0 14.531 4.432 28.027 12.018 39.21l-0.157-0.245-87.979 107.136c-8.976-4.569-19.548-7.323-30.744-7.509l-0.061-0.001c-0.124-0.001-0.27-0.001-0.417-0.001-38.834 0-70.315 31.481-70.315 70.315s31.481 70.315 70.315 70.315c38.834 0 70.315-31.481 70.315-70.315 0-13.943-4.058-26.939-11.059-37.869l0.169 0.281 88.875-107.904c8.483 4.021 18.427 6.378 28.92 6.4h0.008c0.143 0.001 0.312 0.002 0.481 0.002 10.507 0 20.429-2.507 29.199-6.955l-0.368 0.169 91.349 94.336c-8.448 11.312-13.526 25.571-13.526 41.016 0 0.116 0 0.231 0.001 0.346v-0.018c-0.001 0.119-0.001 0.261-0.001 0.402 0 38.622 31.309 69.931 69.931 69.931s69.931-31.309 69.931-69.931c0-19.792-8.223-37.664-21.438-50.386l-0.022-0.021 111.659-212.395c4.908 1.259 10.589 2.072 16.43 2.258l0.125 0.003c0.048 0 0.104 0 0.16 0 13.589 0 26.26-3.926 36.942-10.706l-0.281 0.167 74.411 48.853c-2.664 6.917-4.225 14.918-4.267 23.279v0.017c0 0.009 0 0.021 0 0.032 0 38.622 31.309 69.931 69.931 69.931s69.931-31.309 69.931-69.931c0-19.032-7.603-36.289-19.938-48.898l0.012 0.013 104.149-189.099c6.465 2.382 13.93 3.76 21.718 3.76 0.3 0 0.599-0.002 0.898-0.006h-0.045c38.622 0 69.931-31.309 69.931-69.931s-31.309-69.931-69.931-69.931v0zM69.973 742.4c-17.862 0-32.341-14.48-32.341-32.341s14.48-32.341 32.341-32.341c17.862 0 32.341 14.48 32.341 32.341v0c0 17.862-14.48 32.341-32.341 32.341v0zM214.699 501.803c0-17.862 14.48-32.341 32.341-32.341s32.341 14.48 32.341 32.341c0 17.862-14.48 32.341-32.341 32.341v0c0 0 0 0 0 0-17.862 0-32.341-14.48-32.341-32.341 0-0.045 0-0.090 0-0.135v0.007zM423.765 732.629c-17.862 0-32.341-14.48-32.341-32.341s14.48-32.341 32.341-32.341c17.862 0 32.341 14.48 32.341 32.341v0c-0.097 17.788-14.539 32.171-32.341 32.171-0.015 0-0.030 0-0.045 0h0.002zM600.448 402.56c-17.862 0-32.341-14.48-32.341-32.341s14.48-32.341 32.341-32.341c17.862 0 32.341 14.48 32.341 32.341v0c-0.073 17.807-14.524 32.213-32.341 32.213-0.030 0-0.060 0-0.090 0h0.005zM777.131 533.76c-17.862 0-32.341-14.48-32.341-32.341s14.48-32.341 32.341-32.341c17.862 0 32.341 14.48 32.341 32.341v0c-0.073 17.807-14.524 32.213-32.341 32.213-0.030 0-0.060 0-0.090 0h0.005zM954.197 230.016c-17.862 0-32.341-14.48-32.341-32.341s14.48-32.341 32.341-32.341c17.862 0 32.341 14.48 32.341 32.341v0c-0.073 17.807-14.524 32.213-32.341 32.213-0.030 0-0.060 0-0.090 0h0.005z"></path>
</svg>
