<svg xmlns="http://www.w3.org/2000/svg" width="23.799" height="22.917" viewBox="0 0 23.799 22.917"><path d="M14.6,24.17a.44.44,0,0,1-.22-.059L5.22,18.822a.441.441,0,1,1,.441-.763l9.16,5.289a.441.441,0,0,1-.221.822Z" transform="translate(-5 -12.711)"/><path d="M13.833,17.015a.441.441,0,0,1-.221-.822l9.16-5.289a.441.441,0,1,1,.441.763l-9.16,5.289A.437.437,0,0,1,13.833,17.015Z" transform="translate(-9.693 -8.709)"/><path d="M17.833,19.325a.441.441,0,0,1-.221-.822l9.16-5.289a.441.441,0,1,1,.441.763l-9.16,5.289A.437.437,0,0,1,17.833,19.325Z" transform="translate(-11.931 -10.002)"/><path d="M17.833,29.09a.441.441,0,0,1-.441-.441V25.6a.441.441,0,0,1,.881,0v3.053A.441.441,0,0,1,17.833,29.09Z" transform="translate(-11.931 -16.713)"/><path d="M15.6,31.672a.438.438,0,0,1-.22-.059l-1.763-1.018a.441.441,0,0,1,.441-.763l1.763,1.018a.441.441,0,0,1-.221.822Z" transform="translate(-9.693 -19.295)"/><path d="M13.833,26.78a.441.441,0,0,1-.441-.441V23.286a.441.441,0,1,1,.881,0v3.053A.441.441,0,0,1,13.833,26.78Z" transform="translate(-9.693 -15.421)"/><path d="M14.6,28.036a.437.437,0,0,1-.22-.059L5.22,22.688A.44.44,0,0,1,5,22.306V11.729a.44.44,0,0,1,.22-.382l9.16-5.289a.44.44,0,0,1,.441,0l9.16,5.289a.44.44,0,0,1,.22.382v3.886a.441.441,0,1,1-.881,0V11.983L14.6,6.95l-8.72,5.034V22.052l8.72,5.034,2.459-1.42a.441.441,0,0,1,.441.763l-2.68,1.547A.433.433,0,0,1,14.6,28.036Z" transform="translate(-5 -6)"/><path d="M52.094,51.535a.44.44,0,0,1-.312-.129L47.57,47.193a.441.441,0,0,1,.623-.623l4.213,4.213a.441.441,0,0,1-.312.752Z" transform="translate(-28.736 -28.618)"/><path d="M35.238,39.059h0a4.835,4.835,0,0,1-4.3-7.1,4.924,4.924,0,0,1,4.314-2.583,4.758,4.758,0,0,1,1.158.143,4.849,4.849,0,0,1,1.618,8.659A4.8,4.8,0,0,1,35.238,39.059Zm.017-8.8A3.964,3.964,0,0,0,32.614,37.2a3.967,3.967,0,0,0,2.624.974h0a3.925,3.925,0,0,0,2.284-.718A3.968,3.968,0,0,0,36.2,30.374,3.9,3.9,0,0,0,35.255,30.258Z" transform="translate(-19.201 -19.074)"/><path d="M26.226,41.459a.441.441,0,0,1-.441-.441V30.441a.441.441,0,1,1,.881,0V41.018A.441.441,0,0,1,26.226,41.459Z" transform="translate(-16.625 -19.423)"/><path d="M26.226,24.17a.441.441,0,0,1-.221-.822l9.16-5.289a.441.441,0,1,1,.441.763l-9.16,5.289A.44.44,0,0,1,26.226,24.17Z" transform="translate(-16.625 -12.711)"/></svg>