<svg xmlns="http://www.w3.org/2000/svg" width="23.563" height="23.563" viewBox="0 0 23.563 23.563"><defs><style>.a{fill:#080808;}</style></defs><g transform="translate(83 -14.001)"><g transform="translate(-83 19.632)"><path class="a" d="M31.212,35.087c-1.062,0-1.282-.736-2.124-1.178l2.453-5.594a.347.347,0,0,0-.036-.331.373.373,0,0,0-.293-.184H23.6a.331.331,0,0,0-.293.148l-1.172,1.472H15.211V22.463l.586-2.024a.377.377,0,0,0-.073-.331.333.333,0,0,0-.293-.147H10.816a.333.333,0,0,0-.293.147.551.551,0,0,0-.073.331l.623,2.024v6.919H8.51a.383.383,0,0,0-.329.184.335.335,0,0,0,0,.368c2.673,4.564,2.6,4.674,3.039,5.042-.916-.258-1.208-1.362-2.71-1.362a.368.368,0,0,0,0,.736c1.428,0,1.465,1.435,3.259,1.435,1.758,0,1.831-1.435,3.259-1.435s1.465,1.435,3.259,1.435c1.757,0,1.831-1.435,3.259-1.435s1.465,1.435,3.259,1.435c1.758,0,1.831-1.435,3.259-1.435,1.391,0,1.465,1.435,3.259,1.435a.347.347,0,0,0,.366-.368A.564.564,0,0,0,31.212,35.087ZM14.954,20.7l-.4,1.361h-2.82l-.4-1.361Zm-3.149,2.1h2.636v6.625H11.805ZM24.731,35.087c-1.428,0-1.465-1.435-3.259-1.435-1.758,0-1.831,1.435-3.259,1.435s-1.465-1.435-3.259-1.435c-1.208,0-1.648.7-2.234,1.1h-.183c-1.245,0-1.245-1.214-3.405-4.637H22.278a.333.333,0,0,0,.293-.147L23.742,28.5h6.884l-2.234,5.152C26.342,33.358,26.2,35.087,24.731,35.087Z" transform="translate(-8.125 -19.961)"/></g><g transform="translate(-81.544 35.716)"><path class="a" d="M31.418,55.193c-1.209,0-1.282-1.1-2.856-1.1-1.538,0-1.648,1.1-2.856,1.1s-1.318-1.1-2.82-1.1c-1.538,0-1.648,1.1-2.856,1.1s-1.318-1.1-2.82-1.1c-1.538,0-1.611,1.1-2.82,1.1s-1.281-1.1-2.82-1.1a.368.368,0,0,0,0,.736,1.81,1.81,0,0,1,1.208.479,2.456,2.456,0,0,0,3.3,0,1.738,1.738,0,0,1,1.208-.479c1.208,0,1.282,1.1,2.82,1.1,1.575,0,1.611-1.1,2.856-1.1,1.208,0,1.281,1.1,2.82,1.1s1.648-1.1,2.856-1.1,1.282,1.1,2.856,1.1C31.93,55.929,31.894,55.193,31.418,55.193Z" transform="translate(-11.214 -54.089)"/></g><g transform="translate(-72.01 14.185)"><path class="a" d="M42.078,12.341,43.213,11.2a1.8,1.8,0,0,0,.329-2.466h0a1.778,1.778,0,0,0-2.417.368L39.99,10.243,33.765,8.771a.294.294,0,0,0-.329.11l-.732.736a.335.335,0,0,0-.147.295.47.47,0,0,0,.183.257l4.87,2.393c-2.014,2.1-2.673,2.5-3.369,3.643a2.557,2.557,0,0,0-2.673.626.354.354,0,0,0-.11.368.444.444,0,0,0,.256.257l1.721.442a3.9,3.9,0,0,0-.183.7.3.3,0,0,0,.11.331.511.511,0,0,0,.33.11,6.589,6.589,0,0,0,.7-.184l.439,1.73a.375.375,0,0,0,.623.184,2.589,2.589,0,0,0,.623-2.687c1.135-.736,1.575-1.362,3.625-3.386l2.38,4.9a.276.276,0,0,0,.256.184.312.312,0,0,0,.329-.11l.732-.736a.514.514,0,0,0,.11-.331ZM33.546,9.764l.256-.257,5.6,1.325L38.2,12.046Zm.183,7.472L32.7,16.978a1.831,1.831,0,0,1,1.172-.074A2.968,2.968,0,0,1,33.729,17.236Zm1.611,2.429-.256-1.031c.11-.037.22-.11.329-.147A1.607,1.607,0,0,1,35.34,19.665Zm-1.172-1.472c.549-1.914,1.245-2.319,7.506-8.575.623-.663,1.245-.552,1.392-.295.256.368.036.846-.366,1.325C42.7,10.684,36.145,17.6,34.168,18.192Zm8.385.626-2.307-4.674,1.208-1.214,1.318,5.631Z" transform="translate(-31.445 -8.402)"/></g><g transform="translate(-82.982 14.001)"><path class="a" d="M10.8,11.693a1.472,1.472,0,0,0,1.355.11,1.311,1.311,0,0,0,2.16-.993A1.242,1.242,0,0,0,13.8,9.779,1.313,1.313,0,0,0,13,9.522a1.524,1.524,0,0,0-1.428-.773,1.908,1.908,0,1,0-.769,2.944Zm-.732-2.944c.952,0,.916.81,1.392.736a.825.825,0,0,1,.952.552.341.341,0,0,0,.439.221.566.566,0,0,1,.732.552.582.582,0,0,1-1.062.331c-.366-.478-.769.4-1.465-.184-.293-.221-.439.147-.989.147A1.178,1.178,0,0,1,10.068,8.749Z" transform="translate(-8.164 -8.013)"/></g></g></svg>