<svg xmlns="http://www.w3.org/2000/svg" width="25.202" height="19.747" viewBox="0 0 25.202 19.747"><defs><style>.a{fill:#232e33;}</style></defs><path class="a" d="M305.363,414.163l-1.843-3.721a.5.5,0,0,0-.448-.278H291.189a.5.5,0,0,0-.448.278l-1.841,3.721h-.087v3.99l-.288-.5h0a1.127,1.127,0,0,0-.64-.54,1.279,1.279,0,0,0-.829,0,1.129,1.129,0,0,0-.641.54l-6.03,10.453a1.278,1.278,0,0,0-.124.817,1.2,1.2,0,0,0,.4.7,1.135,1.135,0,0,0,.779.289H293.5a1.135,1.135,0,0,0,.779-.289,1.2,1.2,0,0,0,.4-.7,1.271,1.271,0,0,0-.126-.817l-.543-.941h11.43v-12.7a.511.511,0,0,0,0-.068v-.238Zm-2.6-3,1.486,3H299.74l-.25-3Zm-7.143,0h2.869l.252,3h-3.371Zm3.145,4v1.949h-3.421v-1.949Zm-7.263-4h3.116l-.25,3h-4.35Zm1.875,17.469a.146.146,0,0,1-.126.075H281.692a.148.148,0,0,1-.126-.075.127.127,0,0,1,0-.151l5.778-10a.143.143,0,0,1,.252,0l5.779,10A.125.125,0,0,1,293.375,428.633Zm11.067-2.469H293.435l-3.622-6.278v-4.723h4.529v2.449a.5.5,0,0,0,.5.5h4.421a.5.5,0,0,0,.5-.5v-2.449h4.68Z" transform="translate(-280.241 -410.164)"/><path class="a" d="M288.189,425.933a1.034,1.034,0,0,0-1.46.023,1.033,1.033,0,0,0,0,1.483l.023.023a1.032,1.032,0,0,0,1.459-.023,1.033,1.033,0,0,0,0-1.483Z" transform="translate(-280.241 -410.164)"/><path class="a" d="M286.565,421.972a.241.241,0,0,0-.075.226l.151,2.812a.409.409,0,0,0,.113.188.266.266,0,0,0,.189.088H288a.262.262,0,0,0,.188-.088.4.4,0,0,0,.113-.184l.151-2.816a.238.238,0,0,0-.075-.226.312.312,0,0,0-.226-.1h-1.358A.314.314,0,0,0,286.565,421.972Z" transform="translate(-280.241 -410.164)"/></svg>