<svg xmlns="http://www.w3.org/2000/svg" width="20.734" height="14.922" viewBox="0 0 20.734 14.922"><path d="M8.372,26.145a1.1,1.1,0,1,1-1.1,1.1A1.105,1.105,0,0,1,8.372,26.145Zm0,1.62a.516.516,0,1,0-.516-.516A.516.516,0,0,0,8.372,27.765Z" transform="translate(8.575 -14.593)"/><path d="M31.373,26.145a1.1,1.1,0,1,1-1.1,1.1A1.106,1.106,0,0,1,31.373,26.145Zm0,1.62a.516.516,0,1,0-.516-.516A.516.516,0,0,0,31.373,27.765Z" transform="translate(-27.925 -14.593)"/><path d="M23.423,18.105H10.847c-.023.013-.1-6.821-.1-6.66H6.439c-.955,0-2.511,3.13-3.135,4.476a.287.287,0,0,0-.027.122V20.35a.292.292,0,0,0,.292.291h.908a2.252,2.252,0,0,0,4.464,0H17.93a2.252,2.252,0,0,0,4.464,0h1.324a.292.292,0,0,0,.292-.291V18.088C23.676,18.109,23.585,18.105,23.423,18.105ZM6.439,12.027h.9v3.724H4.03C5.006,13.726,6.077,12.06,6.439,12.027ZM3.861,17.293l.743,0,0,.5H3.861Zm2.848,4.718A1.662,1.662,0,1,1,8.377,20.35,1.666,1.666,0,0,1,6.709,22.011ZM8.94,20.058a2.252,2.252,0,0,0-4.464,0H3.861V18.377H4.6a.589.589,0,0,0,.59-.587V17.3a.588.588,0,0,0-.59-.587H3.861v-.376H7.635a.292.292,0,0,0,.292-.291V12.026h2.335v8.031H8.94Zm1.907-1.37h7.8a2.236,2.236,0,0,0-.723,1.371H10.847Zm9.314,3.323a1.662,1.662,0,1,1,1.669-1.662A1.667,1.667,0,0,1,20.161,22.011Zm2.232-1.953a2.236,2.236,0,0,0-.723-1.371h1.754v1.371Z" transform="translate(-3.277 -7.673)"/><path d="M-146.881,116.165c-.022.1-.036.21-.066.311a1.526,1.526,0,0,1-.4.662l-4.419,4.418q-.729.729-1.457,1.458a1.511,1.511,0,0,1-1.193.468,1.5,1.5,0,0,1-1.011-.462l-1.881-1.883c-.27-.27-.546-.535-.807-.814a1.515,1.515,0,0,1,.029-2.107,4.14,4.14,0,0,1,.513-.476,1.5,1.5,0,0,1,1.936.154c.424.416.841.839,1.261,1.259a.46.46,0,0,1,.044.061l.264-.265q2.129-2.13,4.258-4.26a1.525,1.525,0,0,1,.877-.457,1.465,1.465,0,0,1,1.22.348,5.108,5.108,0,0,1,.5.512,1.387,1.387,0,0,1,.321.777.354.354,0,0,0,.011.046Zm-7.44,4.023-.4-.4q-.691-.691-1.382-1.382a.828.828,0,0,0-1.131-.059c-.128.106-.239.231-.356.349a.83.83,0,0,0,0,1.179q1.332,1.339,2.669,2.673a.814.814,0,0,0,.579.248.83.83,0,0,0,.623-.258l3.091-3.091,2.806-2.806a.833.833,0,0,0,.036-1.167,5.017,5.017,0,0,0-.376-.371.772.772,0,0,0-.51-.2.833.833,0,0,0-.634.259l-4.964,4.965C-154.29,120.147-154.3,120.167-154.321,120.189Z" transform="translate(167.615 -114.215)"/></svg>