<svg xmlns="http://www.w3.org/2000/svg" width="20.736" height="16.478" viewBox="0 0 20.736 16.478"><defs><style>.a{fill:#030504;}.b{fill:#0a0b0a;}</style></defs><g transform="translate(0)"><g transform="translate(-185.955 -336.075)"><path class="a" d="M189.741,349.183a1.1,1.1,0,1,0,1.1,1.1A1.1,1.1,0,0,0,189.741,349.183Zm0,1.62a.516.516,0,1,1,.516-.516A.516.516,0,0,1,189.741,350.8Z"/><path class="a" d="M203.24,349.183a1.1,1.1,0,1,0,1.1,1.1A1.1,1.1,0,0,0,203.24,349.183Zm0,1.62a.516.516,0,1,1,.516-.516A.516.516,0,0,1,203.24,350.8Z"/><path class="a" d="M186.541,348.064h12.577c.023.013.1-6.821.1-6.66h4.311c.955,0,2.511,3.13,3.135,4.476a.286.286,0,0,1,.027.122v4.307a.291.291,0,0,1-.292.291h-.908a2.252,2.252,0,0,1-4.464,0h-8.992a2.252,2.252,0,0,1-4.464,0h-1.324a.292.292,0,0,1-.292-.291v-2.262C186.288,348.068,186.378,348.064,186.541,348.064Zm16.984-6.078h-.9v3.724h3.312C204.958,343.685,203.888,342.019,203.525,341.986Zm2.578,5.266h-.743v.5h.739Zm-2.848,4.718a1.662,1.662,0,1,0-1.667-1.661,1.662,1.662,0,0,0,1.667,1.661Zm-2.231-1.953a2.252,2.252,0,0,1,4.464,0h.615v-1.681h-.738a.589.589,0,0,1-.59-.587v-.49a.588.588,0,0,1,.589-.587h.739V346.3H202.33a.292.292,0,0,1-.292-.291v-4.02H199.7v8.031h1.321Zm-1.907-1.37h-7.8a2.237,2.237,0,0,1,.723,1.371h7.078ZM189.8,351.97a1.662,1.662,0,1,0-1.669-1.661A1.662,1.662,0,0,0,189.8,351.97Zm-2.232-1.953a2.237,2.237,0,0,1,.723-1.371h-1.754v1.371Z"/></g><path class="b" d="M191.869,336.075a5.166,5.166,0,0,1,2.664.72,5.383,5.383,0,0,1,1.944,1.944,5.288,5.288,0,0,1,0,5.328,5.383,5.383,0,0,1-1.944,1.944,5.3,5.3,0,0,1-5.328,0,5.383,5.383,0,0,1-1.944-1.941,5.288,5.288,0,0,1,0-5.328,5.391,5.391,0,0,1,1.944-1.944A5.168,5.168,0,0,1,191.869,336.075Zm4.641,5.328a4.524,4.524,0,0,0-.623-2.331,4.616,4.616,0,0,0-1.7-1.687,4.565,4.565,0,0,0-2.331-.623,4.507,4.507,0,0,0-2.32.623,4.616,4.616,0,0,0-1.687,1.7,4.569,4.569,0,0,0-.621,2.329,4.516,4.516,0,0,0,.623,2.32,4.623,4.623,0,0,0,1.7,1.687,4.565,4.565,0,0,0,2.331.623,4.514,4.514,0,0,0,2.32-.623,4.614,4.614,0,0,0,1.685-1.693A4.544,4.544,0,0,0,196.51,341.4Zm-4.941.625a.211.211,0,0,1-.108-.2v-3.433a.257.257,0,0,1,.256-.258h.3a.256.256,0,0,1,.258.256v3.135l1.526,1.121a.225.225,0,0,1,.1.161.248.248,0,0,1-.054.183l-.18.258a.232.232,0,0,1-.172.1.268.268,0,0,1-.193-.054Z" transform="translate(-185.955 -336.075)"/></g></svg>