<svg xmlns="http://www.w3.org/2000/svg" width="22.891" height="12.822" viewBox="0 0 22.891 12.822"><defs><style>.a{fill:#030504;}.b{fill:#080909;}</style></defs><g transform="translate(-294.219 -350.217)"><path class="a" d="M313.449,359.462a1.173,1.173,0,0,0-1.171,1.172h0a1.172,1.172,0,1,0,1.171-1.173Zm0,1.719a.547.547,0,0,1-.547-.547v0a.548.548,0,1,1,.547.549Z"/><path class="a" d="M299.221,359.462a1.172,1.172,0,1,0,1.172,1.172A1.173,1.173,0,0,0,299.221,359.462Zm0,1.719a.547.547,0,0,1-.548-.547h0a.548.548,0,1,1,.548.548Z"/><rect class="a" width="1.561" height="0.624" transform="translate(310.607 356.664)"/><path class="a" d="M317.081,355.957c-.663-1.428-2.314-4.749-3.327-4.749H309.18c0-.171-.075,7.081-.1,7.067H295.737c-.172,0-.269,0-.618-.018v2.4a.309.309,0,0,0,.31.309h1.4a2.389,2.389,0,0,0,4.736,0H311.1a2.389,2.389,0,0,0,4.736,0h.963a.31.31,0,0,0,.31-.309v-4.57A.308.308,0,0,0,317.081,355.957Zm-21.344,4.39v-1.454h1.86a2.372,2.372,0,0,0-.767,1.455Zm3.461,2.073a1.763,1.763,0,1,1,1.756-1.77A1.769,1.769,0,0,1,299.2,362.42Zm9.882-2.072h-7.514a2.372,2.372,0,0,0-.767-1.454h8.283Zm3.72-8.522h.956c.381.037,1.521,1.8,2.558,3.952H312.8Zm.672,10.594h0a1.763,1.763,0,1,1,1.758-1.77A1.768,1.768,0,0,1,313.47,362.42Zm3.022-5.626h-.784a.624.624,0,0,0-.625.623v.523a.624.624,0,0,0,.626.623h.783v1.785h-.653a2.389,2.389,0,0,0-4.736,0h-1.4v-8.522h2.484v4.26a.309.309,0,0,0,.31.309h4Zm0,.62-.005.528H315.7v-.528Z"/><path class="b" d="M309.623,351.106l-.647,0v-.428H294.738l0,7.638h.26l.009.519h-.526a.259.259,0,0,1-.259-.259h0v-8.156a.259.259,0,0,1,.258-.26h14.758a.534.534,0,0,1,.388.388v.561Z" transform="translate(0 0.06)"/><path class="b" d="M297.767,357.9a.283.283,0,0,1-.283-.283v-6.134a.283.283,0,0,1,.566,0v6.134A.283.283,0,0,1,297.767,357.9Z"/><path class="b" d="M303.519,357.9a.283.283,0,0,1-.283-.283v-6.134a.283.283,0,1,1,.566,0v6.134A.283.283,0,0,1,303.519,357.9Z"/><path class="b" d="M306.348,357.9a.283.283,0,0,1-.283-.283v-6.134a.283.283,0,0,1,.566,0v6.134A.283.283,0,0,1,306.348,357.9Z"/><path class="b" d="M300.6,357.9a.283.283,0,0,1-.283-.283v-6.134a.283.283,0,1,1,.566,0v6.134A.283.283,0,0,1,300.6,357.9Z"/></g></svg>