<svg xmlns="http://www.w3.org/2000/svg" width="19.508" height="19.501" viewBox="0 0 19.508 19.501"><defs><style>.a{fill:#090909;}</style></defs><g transform="translate(-0.667 -0.942)"><line class="a" y1="0.37" x2="0.32" transform="translate(10.13 8.443)"/><path class="a" d="M18.02,7.173a7.84,7.84,0,0,0,1.79-3.03,7.548,7.548,0,0,0,.35-2.79.4.4,0,0,0-.38-.39,7.653,7.653,0,0,0-2.77.31,7.748,7.748,0,0,0-3.11,1.87l-1.05,1.23-2.42-.65c.01-.02.03-.03.04-.05a.405.405,0,0,0-.04-.56.414.414,0,0,0-.59.02l-.29.3a.055.055,0,0,0-.03.05l-1.86-.5.14-.15.05-.05A.422.422,0,0,0,7.8,2.2a.412.412,0,0,0-.58.04l-.48.49-3.55-.95a.424.424,0,0,0-.46.2l-.99,1.7a.408.408,0,0,0,.15.56l7.44,4.25-4.1,4.8-3.52-.38a.427.427,0,0,0-.38.18l-.58.86c-.02.02-.03.05-.05.07a.423.423,0,0,0,.22.55l3.09,1.38,1.17,1.17,1.38,3.09a.422.422,0,0,0,.26.23h.12a.4.4,0,0,0,.23-.08l.86-.57a.425.425,0,0,0,.17-.39l-.37-3.51,4.26-3.62.55-.49,4.23,7.45a.385.385,0,0,0,.26.19.17.17,0,0,0,.1,0,.406.406,0,0,0,.21-.05l1.69-.99a.4.4,0,0,0,.2-.46l-.94-3.52.5-.5a.417.417,0,0,0,0-.57.426.426,0,0,0-.6-.02l-.15.15-.49-1.83a.209.209,0,0,0,.06-.04L18,11.3a.413.413,0,0,0,0-.55.423.423,0,0,0-.59-.04l-.01.01-.65-2.45L17.99,7.2ZM2.67,3.733l.62-1.08,8.97,2.41L9.88,7.853Zm15.81,14.09-1.08.62-4.15-7.27,2.82-2.39ZM16.21,7.633a.385.385,0,0,0-.22.09l-3.54,3.04a.465.465,0,0,0-.13.21l-.77.65-4.43,3.79a.389.389,0,0,0-.14.35l.38,3.49-.25.17L5.9,16.7a.834.834,0,0,0-.08-.12l-1.28-1.27a.345.345,0,0,0-.12-.09L1.7,14.013l.17-.24,3.47.37a.442.442,0,0,0,.36-.15l4.43-5.18.32-.37,2.72-3.18.33-.39v-.01l1.01-1.17a6.759,6.759,0,0,1,4.85-1.94,7.33,7.33,0,0,1-.32,2.13,7.16,7.16,0,0,1-1.62,2.73Z"/><path class="a" d="M11.286,10.836a.415.415,0,0,1-.274-.73l4.4-3.811a.415.415,0,0,1,.563.609l-.02.016-4.4,3.812A.414.414,0,0,1,11.286,10.836Z"/><path class="a" d="M6.109,15.423a.414.414,0,0,1-.3-.706h0l.83-.83a.416.416,0,0,1,.589.589h0l-.83.83A.409.409,0,0,1,6.109,15.423Z"/></g></svg>