<svg xmlns="http://www.w3.org/2000/svg" width="34.56" height="39.36" viewBox="0 0 34.56 39.36"><defs><style>.a{fill:#080808;}</style></defs><path class="a" d="M24,5.008a.638.638,0,0,0-.64.635V8.825h-3.2a.638.638,0,0,0-.64.635v3.178h-3.2a.638.638,0,0,0-.64.635v5.951q0,.021,0,.042L8.42,21.9a.638.638,0,0,0-.363.336.63.63,0,0,0-.012.493L14.007,37.7a4.476,4.476,0,0,1-1.18-.682.644.644,0,0,0-.9.088.632.632,0,0,0,.089.894,5.783,5.783,0,0,0,6.848.31,5.776,5.776,0,0,0,6.4,0,5.77,5.77,0,0,0,6.4,0,5.781,5.781,0,0,0,6.873-.325.632.632,0,0,0,.2-.716A.643.643,0,0,0,37.715,37a4.468,4.468,0,0,1-1.13.665l5.93-14.779a.63.63,0,0,0-.01-.491.638.638,0,0,0-.36-.337L34.88,19.352V13.275a.638.638,0,0,0-.64-.635h-3.2V9.463a.638.638,0,0,0-.64-.635H27.2V5.645a.638.638,0,0,0-.64-.635H24Zm.64,1.27h1.28V8.746l-1.28-.027ZM20.8,10.1h8.958v2.542H20.8Zm-3.84,3.812H30.343a.645.645,0,0,0,.1,0H33.6v4.963l-8.083-3.014a.621.621,0,0,0-.438-.01h-.02l-.04.015-8.06,2.929Zm7.68,3.453V37.189a4.469,4.469,0,0,1-5.123.025.757.757,0,0,0-1.253-.035,4.466,4.466,0,0,1-2.753.831L9.475,22.872Zm1.28,0,15.165,5.655-6,14.962-.01.027a4.47,4.47,0,0,1-2.768-.8.75.75,0,0,0-1.235-.037,4.471,4.471,0,0,1-5.15.047Zm-7,22.029a.643.643,0,0,0-.075.012.641.641,0,0,0-.625.355,4.485,4.485,0,0,1-5.39-.2.644.644,0,0,0-.644-.126.633.633,0,0,0-.168,1.106,5.783,5.783,0,0,0,6.848.31,5.776,5.776,0,0,0,6.4,0,5.77,5.77,0,0,0,6.4,0,5.781,5.781,0,0,0,6.873-.325.632.632,0,0,0,.2-.716.643.643,0,0,0-1.015-.261,4.482,4.482,0,0,1-5.408.211.767.767,0,0,0-1.285,0,4.476,4.476,0,0,1-5.115.012.767.767,0,0,0-1.285,0,4.472,4.472,0,0,1-5.105.02.641.641,0,0,0-.6-.37Zm0,2.542a.957.957,0,0,0-.65.327,4.485,4.485,0,0,1-5.44-.161.644.644,0,0,0-.9.088.632.632,0,0,0,.089.894,5.783,5.783,0,0,0,6.848.31,5.776,5.776,0,0,0,6.4,0,5.77,5.77,0,0,0,6.4,0,5.781,5.781,0,0,0,6.873-.325.632.632,0,0,0,.2-.718.646.646,0,0,0-1.018-.261,4.481,4.481,0,0,1-5.4.213.751.751,0,0,0-1.238-.047,4.472,4.472,0,0,1-5.163.047.755.755,0,0,0-1.238-.047,4.473,4.473,0,0,1-5.153.057.641.641,0,0,0-.605-.375Z" transform="translate(-8 -5.008)"/></svg>