<svg xmlns="http://www.w3.org/2000/svg" width="8.75" height="14.125" viewBox="0 0 8.75 14.125"><defs><style>.a{fill:#262626;}</style></defs><g transform="translate(-944.125 -214.688)"><path class="a" d="M7.562,7.625a1.254,1.254,0,0,1,.943.383,1.273,1.273,0,0,1,.369.916,1.342,1.342,0,0,1-.383.943L5.43,12.93a1.266,1.266,0,0,1-.93.383,1.266,1.266,0,0,1-.93-.383L.508,9.867a1.291,1.291,0,0,1-.369-.943,1.325,1.325,0,0,1,.383-.916,1.221,1.221,0,0,1,.916-.383ZM4.5,12,7.562,8.938H1.437Z" transform="translate(944 215.5)"/><path class="a" d="M1.437,5.875a1.254,1.254,0,0,1-.943-.383,1.273,1.273,0,0,1-.369-.916,1.342,1.342,0,0,1,.383-.943L3.57.57A1.266,1.266,0,0,1,4.5.188,1.266,1.266,0,0,1,5.43.57L8.492,3.633a1.291,1.291,0,0,1,.369.943,1.325,1.325,0,0,1-.383.916,1.221,1.221,0,0,1-.916.383ZM4.5,1.5,1.437,4.563H7.562Z" transform="translate(944 214.5)"/></g></svg>
