<svg xmlns="http://www.w3.org/2000/svg" width="27.709" height="22.727" viewBox="0 0 27.709 22.727"><defs><style>.a{stroke:#000;stroke-width:0.25px;}</style></defs><g transform="translate(-80.443 -150.698)"><path class="a" d="M18.74,29.493h3.482a.594.594,0,0,1,.311.113L24.6,31.673V29.634a.426.426,0,0,1,.283-.4,4.719,4.719,0,0,0-.623-9.115A.417.417,0,0,1,24.4,19.3a5.564,5.564,0,0,1,1.047,10.644V32.1a.676.676,0,0,1-.425.623.827.827,0,0,1-.255.057.663.663,0,0,1-.481-.2l-2.236-2.236H18.74a5.539,5.539,0,0,1-4.982-3.057.424.424,0,1,1,.764-.368A4.738,4.738,0,0,0,18.74,29.493ZM1.5,17.49A7.2,7.2,0,0,1,8.69,10.3h6.143A7.19,7.19,0,1,1,14.8,24.68H10.389L7.416,27.653a.773.773,0,0,1-.538.226.761.761,0,0,1-.764-.764V24.2A7.15,7.15,0,0,1,1.5,17.49Zm.849,0a6.334,6.334,0,0,0,4.331,6,.426.426,0,0,1,.283.4v3.029l2.944-2.944a.426.426,0,0,1,.311-.113H14.8a6.341,6.341,0,1,0,0-12.682H8.662A6.282,6.282,0,0,0,2.349,17.49Zm4.671.425h9.427a.425.425,0,0,0,0-.849H7.02a.425.425,0,1,0,0,.849Zm0-2.406h9.427a.425.425,0,0,0,0-.849H7.02a.425.425,0,0,0,0,.849Zm9.427,3.935h-4.7a.425.425,0,0,0,0,.849h4.727a.435.435,0,0,0,.425-.425A.442.442,0,0,0,16.447,19.443Z" transform="translate(79.068 140.523)"/></g></svg>