<svg xmlns="http://www.w3.org/2000/svg" width="19" height="19" viewBox="0 0 19 19"><defs><style>.a{fill:#c91a13;}</style></defs><g transform="translate(-0.961 -2.961)"><path class="a" d="M11.5,2A9.5,9.5,0,1,0,21,11.5,9.5,9.5,0,0,0,11.5,2Zm0,17.643A8.143,8.143,0,1,1,19.643,11.5,8.143,8.143,0,0,1,11.5,19.643Zm4.675-5.8a.679.679,0,0,1-.6.373.631.631,0,0,1-.305-.075L11.195,12.1a.679.679,0,0,1-.373-.6V5.393a.679.679,0,0,1,1.357,0v5.686l3.7,1.852A.679.679,0,0,1,16.175,13.841Z" transform="translate(-1.039 0.961)"/></g></svg>