<svg xmlns="http://www.w3.org/2000/svg" width="25.301" height="25.304" viewBox="0 0 25.301 25.304"><g transform="translate(-5 -5)"><g transform="translate(5 5)"><path d="M19.028,74.77H15.472a.562.562,0,0,0,0,1.124h3.556a.562.562,0,0,0,0-1.124Z" transform="translate(-12.124 -55.156)"/><path d="M15.472,80.51a.562.562,0,0,0,0,1.124h2.221a.562.562,0,0,0,0-1.124Z" transform="translate(-12.124 -59.283)"/><circle cx="0.562" cy="0.562" r="0.562" transform="translate(6.339 21.227)"/><path d="M60.622,5a5.622,5.622,0,1,0,5.622,5.622A5.622,5.622,0,0,0,60.622,5Zm0,10.12a4.5,4.5,0,1,1,4.5-4.5A4.5,4.5,0,0,1,60.622,15.12Z" transform="translate(-40.944 -5)"/><path d="M27.49,21.715a.562.562,0,0,0-.562.562V32.96l-1.687,1.349V22.839a.562.562,0,1,0-1.124,0V34.927H6.124V16.936h6.21v7.441a.562.562,0,0,0,.843.481L15.12,23.7l1.934,1.161a.562.562,0,0,0,.843-.489V16.936h.225a.562.562,0,0,0,0-1.124H6.732l1.361-1.687H18.775a.562.562,0,1,0,0-1.124H7.811a.562.562,0,0,0-.439.211L5.124,16.022a.045.045,0,0,0,0,.02.228.228,0,0,0-.034.051l-.025.045a.377.377,0,0,0-.02.051l-.017.053v.051a.419.419,0,0,0,0,.059L5,16.373V35.49a.562.562,0,0,0,.562.562H24.679a.436.436,0,0,0,.1,0h.034l.065-.02.037-.017.056-.028.037-.025h.02l2.811-2.249a.562.562,0,0,0,.211-.472V22.277A.562.562,0,0,0,27.49,21.715ZM13.459,16.936h3.323v6.446l-1.38-.824a.562.562,0,0,0-.562,0l-1.372.821Z" transform="translate(-5 -10.751)"/><path d="M68.319,12.66a2.568,2.568,0,0,0-2.08,4.076h0l1.718,2.7a.427.427,0,0,0,.357.194.419.419,0,0,0,.354-.194l1.72-2.7h0a2.566,2.566,0,0,0-2.069-4.076ZM69.7,16.267a.446.446,0,0,0-.037.062l-1.341,2.108-1.341-2.108a.281.281,0,0,0-.039-.062,1.729,1.729,0,1,1,2.758,0Z" transform="translate(-48.672 -10.507)"/><path d="M71.446,17a1.344,1.344,0,1,0,1.341,1.341A1.344,1.344,0,0,0,71.446,17Zm0,1.841a.208.208,0,1,1,0,.008Z" transform="translate(-51.799 -13.627)"/></g></g></svg>