<svg xmlns="http://www.w3.org/2000/svg" width="50" height="36" viewBox="0 0 50 36"><defs><style>.a{fill:#080808;}</style></defs><g transform="translate(-0.658 -6.607)"><path class="a" d="M8.3,11.9v0a.782.782,0,0,0-.781.782v9.253q0,.008,0,.015a.782.782,0,0,0,.781.914h12.5a.782.782,0,0,0,.781-.761l.037-1.18q0-.011,0-.021l.009-1.773,5.826,5.27L21.593,29.7l.006-1.748q0-.011,0-.021l-.024-1.174a.782.782,0,0,0-.781-.767H8.3a.782.782,0,0,0-.781.914v8.48H6.734a.782.782,0,0,0-.781.782v3.13a.782.782,0,0,0,.781.783H10.9a.781.781,0,0,0,.876-.514,6.269,6.269,0,0,1,1.91-2.721.782.782,0,0,0,.226-.19,6.187,6.187,0,0,1,7.59.058.782.782,0,0,0,.11.092,6.265,6.265,0,0,1,1.965,2.785.781.781,0,0,0,.977.486H36.681a.781.781,0,0,0,.876-.514,6.248,6.248,0,0,1,11.8.024.781.781,0,0,0,.97.489h4.843a.782.782,0,0,0,.781-.782v-3.13a.782.782,0,0,0-.781-.783H54.39V23.641a.783.783,0,0,0-.345-.648l-8.087-9.256a.781.781,0,0,0-.589-.269H34.077v-.783A.782.782,0,0,0,33.3,11.9Zm.781,1.568H32.515V35.382H22.343a7.752,7.752,0,0,0-9.341,0H9.077v-3.13h2.5a.783.783,0,0,0,0-1.565h-2.5V27.553h10.95l.009.4-.015,3.512a.781.781,0,0,0,1.3.587l7.812-7.064a.783.783,0,0,0,0-1.162L21.367,16.8a.781.781,0,0,0-1.3.578l-.015,3.512-.012.413H9.077Zm25,1.565H45.015l6.839,7.825H34.077Zm0,9.391h18.75v3.13H50.484a.782.782,0,0,0-.781.782v3.13a.782.782,0,0,0,.781.783h2.344v3.13h-4.7a7.752,7.752,0,0,0-9.341,0H34.077Zm3.629,2.348a.784.784,0,0,0,.079,1.565h3.51a.783.783,0,0,0,0-1.565h-3.51A.778.778,0,0,0,37.706,26.774Zm13.559,2.348h1.562v1.565H51.265ZM7.515,36.947h3.909a7.822,7.822,0,0,0-.888,1.565H7.515Zm10.156,0a5.478,5.478,0,1,0,5.469,5.478A5.485,5.485,0,0,0,17.671,36.947Zm6.25,0h9.256a.781.781,0,0,0,.229,0h3.8a7.823,7.823,0,0,0-.888,1.565H24.809A7.834,7.834,0,0,0,23.921,36.947Zm19.531,0a5.478,5.478,0,1,0,5.469,5.478A5.485,5.485,0,0,0,43.452,36.947Zm6.25,0H54.39v1.565h-3.8A7.834,7.834,0,0,0,49.7,36.947ZM17.671,38.512a3.913,3.913,0,1,1-3.906,3.913A3.9,3.9,0,0,1,17.671,38.512Zm25.781,0a3.913,3.913,0,1,1-3.906,3.913A3.9,3.9,0,0,1,43.452,38.512ZM17.671,40.077a2.348,2.348,0,1,0,2.344,2.348A2.358,2.358,0,0,0,17.671,40.077Zm25.781,0A2.348,2.348,0,1,0,45.8,42.425,2.358,2.358,0,0,0,43.452,40.077ZM17.671,41.642a.783.783,0,1,1-.781.783A.77.77,0,0,1,17.671,41.642Zm25.781,0a.783.783,0,1,1-.781.783A.77.77,0,0,1,43.452,41.642Z" transform="translate(-5.294 -5.295)"/></g></svg>