<svg height='100px' width='100px'  fill="#000000" xmlns="http://www.w3.org/2000/svg" viewBox="0 0 96 96" x="0px" y="0px"><title>Artboard 1</title><path d="M64.5134,52.1313l-1.1887-1.6792a24.0079,24.0079,0,1,0-30.8374-.1708L31.1428,52.18A25.8575,25.8575,0,0,0,8,78v8a1.9988,1.9988,0,0,0,2,2H86a1.9988,1.9988,0,0,0,2-2V78A25.8683,25.8683,0,0,0,64.5134,52.1313ZM61.4368,54.71l-2.1289,5.41-3.8391-4.34.4042-1.0774c.0074-.02.003-.04.01-.06a23.8636,23.8636,0,0,0,4.1526-1.9114ZM49.6133,60H46.3867l-1.59-4.2393a21.5542,21.5542,0,0,0,6.4058,0Zm-3.125,4h3.0234L51.74,71.43,48,75.1719,44.26,71.43ZM28,32A20,20,0,1,1,48,52,20.0236,20.0236,0,0,1,28,32ZM40.1172,54.6428c.0068.02.0024.0405.01.06l.289.7708-3.7236,4.21-2.1289-5.41L35.7483,52.6A23.8565,23.8565,0,0,0,40.1172,54.6428ZM84,84H12V78A21.8387,21.8387,0,0,1,31.05,56.2717l3.1343,7.9607a2.0024,2.0024,0,0,0,1.5273,1.24,2.15,2.15,0,0,0,.334.0273,2,2,0,0,0,1.5156-.6953l4.4258-5.1426.9033,2.4082L40.084,71.4258a2.0012,2.0012,0,0,0,.5019,1.9883l6,6a1.9995,1.9995,0,0,0,2.8282,0l6-6a2.0012,2.0012,0,0,0,.5019-1.9883L53.1094,62.07l.7893-2.1042,4.54,5.2756a2.0006,2.0006,0,0,0,1.5156.6953,2.1485,2.1485,0,0,0,.334-.0273,2.0026,2.0026,0,0,0,1.5274-1.24L65.11,56.302A21.833,21.833,0,0,1,84,78Z"></path></svg>