<svg xmlns="http://www.w3.org/2000/svg" width="15" height="19" viewBox="0 0 15 19"><defs><style>.a{fill:#757575;}</style></defs><g transform="translate(-15 -5)"><path class="a" d="M15.643,957.362A.648.648,0,0,0,15,958v17.733a.663.663,0,0,0,.643.633H29.357a.663.663,0,0,0,.643-.633V962.64a.636.636,0,0,0-.187-.449L25.1,957.547a.655.655,0,0,0-.455-.185h-9Zm.643,1.267H24v4.011a.638.638,0,0,0,.643.633h4.071V975.1H16.286Zm9,.891,2.525,2.487H25.285v-2.487ZM22.5,965.384a.648.648,0,0,0-.482.211L19.9,967.68a.63.63,0,0,0,0,.9.652.652,0,0,0,.911,0l1.045-1.029v4.38a.643.643,0,0,0,1.286,0v-4.38l1.045,1.029a.652.652,0,0,0,.911,0,.63.63,0,0,0,0-.9L22.982,965.6A.648.648,0,0,0,22.5,965.384Z" transform="translate(0 -952.362)"/></g></svg>