<svg xmlns="http://www.w3.org/2000/svg" width="35" height="42" viewBox="0 0 35 42"><defs><style>.a{fill:#280000;}.b{fill:#f7be00;}</style></defs><path class="a" d="M17.5,42c-1.762-.78-10.03-4.485-12.736-6.73A13.422,13.422,0,0,1,0,24.553V4.038A35.647,35.647,0,0,1,17.5,0,35.647,35.647,0,0,1,35,4.038V24.553A13.422,13.422,0,0,1,30.236,35.27C27.53,37.515,19.262,41.22,17.5,42Z" transform="translate(0 0)"/><path class="b" d="M33.012,4.992c-2.084-.195-4.252-.323-6.463-.323-8.186,0-16.977,1.783-24.224,8.525V24.719A11.262,11.262,0,0,0,6.3,33.752c2.3,1.9,9.387,5.14,11.368,6.033,1.971-.88,9.026-4.079,11.368-6.033a11.213,11.213,0,0,0,3.975-9.033V4.992M3.823,23.52V14.159H6.756v9.509c0,.842.2,2.092,1.549,2.092A2.426,2.426,0,0,0,9.713,25.4V14.159h2.934V27.077a7.72,7.72,0,0,1-4.431,1.2c-2.905,0-4.384-1.6-4.384-4.754m13.25,10.8H14.149V14.915a7.046,7.046,0,0,1,3.961-1.055c3.506,0,5.435,2.7,5.435,7.037s-1.873,7.331-5.135,7.331a4.489,4.489,0,0,1-1.328-.176Zm0-8.7a2.868,2.868,0,0,0,.939.176c1.694,0,2.5-1.569,2.5-4.826,0-3.328-.7-4.716-2.413-4.716a2.544,2.544,0,0,0-1.042.214Zm7.13-7.883a3.947,3.947,0,0,1,3.947-3.88,4.958,4.958,0,0,1,3.225.951V17.4a3.921,3.921,0,0,0-2.633-1.227c-.835,0-1.7.366-1.732,1.426s.84,1.512,1.934,2.163c2.459,1.46,2.934,2.777,2.877,4.512a4,4,0,0,1-4.257,3.984,6.393,6.393,0,0,1-3.234-.951v-2.7a4.663,4.663,0,0,0,2.816,1.208,1.574,1.574,0,0,0,1.765-1.655c-.023-.951-.544-1.426-1.84-2.216-2.422-1.426-2.858-2.624-2.863-4.208M5.315,34.974A12.852,12.852,0,0,1,.772,24.719V4.569a35.411,35.411,0,0,1,16.9-3.8,35.355,35.355,0,0,1,16.9,3.8V24.719a12.859,12.859,0,0,1-4.543,10.255c-2.718,2.258-11.363,6.09-12.354,6.533C16.678,41.064,8.033,37.232,5.315,34.974ZM28.455,39.2v1.75h.31v-.732h.052l.469.732h.375l-.521-.77a.474.474,0,0,0,.385-.475.512.512,0,0,0-.171-.393.5.5,0,0,0-.407-.121Zm.469.257c.263,0,.3.128.3.242s-.066.276-.4.276h-.042v-.518Zm1.216.623a1.169,1.169,0,1,1-1.169-1.189,1.157,1.157,0,0,1,.829.347,1.187,1.187,0,0,1,.339.842m-1.169-1.426a1.426,1.426,0,1,0,1.408,1.426,1.417,1.417,0,0,0-1.408-1.426" transform="translate(-0.169 -0.167)"/></svg>
