<!-- Generated by IcoMoon.io -->
<svg version="1.1" xmlns="http://www.w3.org/2000/svg" width="1024" height="1024" viewBox="0 0 1024 1024">
<title></title>
<g id="icomoon-ignore">
</g>
<path fill="#000" d="M892.16 176.299l-386.517-174.208c-2.838-1.32-6.161-2.091-9.664-2.091s-6.826 0.77-9.809 2.151l0.145-0.060-386.517 174.208c-8.61 4.048-14.465 12.65-14.465 22.619 0 0.073 0 0.146 0.001 0.219v-0.011 672c-0.002 0.102-0.002 0.223-0.002 0.344 0 13.415 10.767 24.316 24.132 24.53h773.055c13.384-0.215 24.152-11.115 24.152-24.53 0-0.121-0.001-0.242-0.003-0.363v0.018-672c0-0.056 0.001-0.122 0.001-0.188 0-9.986-5.874-18.599-14.355-22.574l-0.153-0.064zM496 547.499c13.384-0.215 24.152-11.115 24.152-24.53 0-0.121-0.001-0.242-0.003-0.363v0.018-24.875h48.299v149.333h-145.067v-149.333h48.299v24.875c-0.002 0.115-0.003 0.25-0.003 0.385 0 13.475 10.864 24.413 24.312 24.532h0.011zM399.36 746.667c13.384-0.215 24.152-11.115 24.152-24.53 0-0.121-0.001-0.242-0.003-0.363v0.018-24.875h48.299v149.333h-145.067v-149.333h48.299v24.875c-0.002 0.102-0.002 0.222-0.002 0.342 0 13.475 10.864 24.413 24.311 24.532h0.011zM520.149 846.208v-149.333h48.299v24.875c0 13.337 10.812 24.149 24.149 24.149s24.149-10.812 24.149-24.149v0-24.875h48.299v149.333zM858.325 846.208h-145.067v-174.208c0.002-0.102 0.002-0.223 0.002-0.344 0-13.415-10.767-24.316-24.132-24.53h-72.553v-174.251c0.002-0.102 0.002-0.223 0.002-0.344 0-13.415-10.767-24.316-24.132-24.53h-193.087c-13.384 0.215-24.152 11.115-24.152 24.53 0 0.121 0.001 0.242 0.003 0.363v-0.018 174.208h-72.277c-13.384 0.215-24.152 11.115-24.152 24.53 0 0.121 0.001 0.242 0.003 0.363v-0.018 174.208h-145.067v-630.784l362.283-163.328 362.368 163.328z"></path>
<path fill="#000" d="M184.875 273.749v522.667c0 13.219 10.717 23.936 23.936 23.936s23.936-10.717 23.936-23.936v-497.749h526.507v497.749c0 13.219 10.717 23.936 23.936 23.936s23.936-10.717 23.936-23.936v-522.667c0.003-0.141 0.005-0.307 0.005-0.473 0-13.33-10.687-24.164-23.961-24.401h-574.358c-13.277 0.261-23.941 11.086-23.941 24.401 0 0.167 0.002 0.333 0.005 0.499v-0.025z"></path>
</svg>
