<svg xmlns="http://www.w3.org/2000/svg" width="30.169" height="27.739" viewBox="0 0 30.169 27.739"><defs><style>.a{fill:#080808;}</style></defs><g transform="translate(-4.015 -7.717)"><path class="a" d="M16.316,960.079a.406.406,0,0,0-.144.051L11.7,962.509l-.02.01-1.773.933-1.486.789-.01.01L4.23,966.465l-.031.02a.427.427,0,0,0-.041.031l-.02.02-.01.01a.4.4,0,0,0-.041.051s0,.007,0,.01a.425.425,0,0,0-.041.061s0,.007,0,.01a.412.412,0,0,0-.031.154v13.705a.421.421,0,0,0,.205.359l11.829,6.848.01.01h.01a.4.4,0,0,0,.062.031.39.39,0,0,0,.092.02l.031.01h.01a.4.4,0,0,0,.123-.02l.02-.01.031-.01a.383.383,0,0,0,.041-.02l.041-.02.01-.01,6.694-3.875a5.7,5.7,0,1,0,5.351-7.924l-.041.01v-9.011a.423.423,0,0,0-.205-.472L16.551,960.13a.413.413,0,0,0-.195-.051h-.041Zm.041.882,10.938,5.874-3.536,2.04-11.02-5.987,3.619-1.927Zm-4.49,2.388,11.061,6.007-2.491,1.435L9.458,964.62l1.1-.574,1.312-.7ZM8.6,965.082h.01l11.02,6.181L16.275,973.2l-11-6.356L8.6,965.082Zm-3.762,2.46,11.03,6.376v12.773L4.834,980.3V967.542Zm22.88,0v8.437a5.734,5.734,0,0,0-4.941,5.587,5.667,5.667,0,0,0,.185,1.5l-6.274,3.629V973.918l3.219-1.866.051,2.214a.432.432,0,0,0,.625.338l3.352-1.958a.418.418,0,0,0,.205-.359l.01-2.686,3.567-2.06Zm-4.387,2.542-.01,1.978-2.563,1.486-.041-1.958,2.614-1.507Zm5.095,5.843c-.169,0-.337.014-.5.031C28.085,975.942,28.253,975.929,28.422,975.927Zm.021.83h.051a.414.414,0,0,0,.062,0,4.909,4.909,0,1,1-.113,0Z" transform="translate(0 -952.362)"/><path class="a" d="M3.764-2.682a3.052,3.052,0,0,1-.4,1.742,1.424,1.424,0,0,1-1.251.57A1.434,1.434,0,0,1,.868-.927,2.9,2.9,0,0,1,.449-2.592v-.891A2.984,2.984,0,0,1,.85-5.2,1.435,1.435,0,0,1,2.1-5.766a1.448,1.448,0,0,1,1.248.543,2.879,2.879,0,0,1,.411,1.675ZM3.1-3.594A2.445,2.445,0,0,0,2.858-4.83.819.819,0,0,0,2.1-5.217a.809.809,0,0,0-.747.386,2.387,2.387,0,0,0-.242,1.187v1.068a2.484,2.484,0,0,0,.247,1.257.818.818,0,0,0,.748.406A.807.807,0,0,0,2.846-1.3,2.394,2.394,0,0,0,3.1-2.5Z" transform="translate(26.459 32.564)"/></g></svg>