<svg xmlns="http://www.w3.org/2000/svg" width="40.5" height="40.5" viewBox="0 0 40.5 40.5"><defs><style>.a{fill:#a1bbe0;}.b{fill:#080808;}</style></defs><g transform="translate(-289 -1970)"><g transform="translate(-228 -990)"><g transform="translate(503 2932.663)"><path class="a" d="M20.25,0A20.25,20.25,0,1,1,0,20.25,20.25,20.25,0,0,1,20.25,0Z" transform="translate(14 27.337)"/><rect width="0.862" transform="translate(30.307 52.458)"/></g><g transform="translate(527.594 2971)"><path class="b" d="M67.268,11.722H62.876a.477.477,0,0,1-.476-.476V6.854a.476.476,0,0,1,.811-.338L67.6,10.908a.476.476,0,0,1,.1.519A.471.471,0,0,1,67.268,11.722Zm-3.916-.952h2.767L63.352,8Z" transform="translate(-50.966 -6.377)"/><path class="b" d="M38.356,24.861H24.936a.477.477,0,0,1-.476-.476V6.856a.477.477,0,0,1,.476-.476h9.027a.468.468,0,0,1,.335.14l4.392,4.392a.472.472,0,0,1,.14.335V24.385A.477.477,0,0,1,38.356,24.861Zm-12.944-.952H37.88V11.446L33.766,7.332H25.412Z" transform="translate(-22.054 -6.379)"/><path class="b" d="M37.035,28.392H34.758a.239.239,0,0,1-.238-.238V25.948a.239.239,0,0,1,.238-.238h2.277a.239.239,0,0,1,.238.238v2.206A.237.237,0,0,1,37.035,28.392Zm-2.042-.476h1.8v-1.73h-1.8Z" transform="translate(-29.72 -21.11)"/><path class="b" d="M37.035,47.322H34.758a.239.239,0,0,1-.238-.238V44.878a.239.239,0,0,1,.238-.238h2.277a.239.239,0,0,1,.238.238v2.206A.239.239,0,0,1,37.035,47.322Zm-2.042-.476h1.8v-1.73h-1.8Z" transform="translate(-29.72 -35.536)"/><path class="b" d="M37.035,65.182H34.758a.239.239,0,0,1-.238-.238V62.738a.239.239,0,0,1,.238-.238h2.277a.239.239,0,0,1,.238.238v2.206A.239.239,0,0,1,37.035,65.182Zm-2.042-.476h1.8v-1.73h-1.8Z" transform="translate(-29.72 -49.146)"/><path class="b" d="M54.2,35.416H49.278a.238.238,0,0,1,0-.476H54.2a.238.238,0,1,1,0,.476Z" transform="translate(-40.785 -28.144)"/><path class="b" d="M54.2,53.786H49.278a.238.238,0,0,1,0-.476H54.2a.238.238,0,1,1,0,.476Z" transform="translate(-40.785 -42.143)"/><path class="b" d="M54.2,72.156H49.278a.238.238,0,0,1,0-.476H54.2a.238.238,0,1,1,0,.476Z" transform="translate(-40.785 -56.142)"/></g></g></g></svg>