<svg xmlns="http://www.w3.org/2000/svg" width="40.5" height="40.5" viewBox="0 0 40.5 40.5"><defs><style>.a{fill:#a8c2e5;}.b{stroke:#000;stroke-width:0.25px;}</style></defs><g transform="translate(-555 -1970)"><g transform="translate(-22 -806)"><path class="a" d="M20.25,0A20.25,20.25,0,1,1,0,20.25,20.25,20.25,0,0,1,20.25,0Z" transform="translate(577 2776)"/><g transform="translate(584.996 2781.451)"><path class="b" d="M40.585,22.5a.481.481,0,0,0,.48-.481V9.127a.174.174,0,0,0-.025-.083l-2.2-3.293a.47.47,0,0,0-.383-.2H28.077a.471.471,0,0,0-.385.2l-2.2,3.291a.177.177,0,0,0-.008.016s0,.006-.006.01,0,0,0,.006a.149.149,0,0,0-.009.046s0,0,0,.005v5.484h.3V9.279H31.7v2.455a.151.151,0,0,0,.151.151H34.68a.151.151,0,0,0,.151-.151V9.279h5.933c0,1.371,0,9.028,0,12.744a.177.177,0,0,1-.176.177H28.271v.3ZM27.942,5.922a.165.165,0,0,1,.134-.071H31.7V8.977H25.9Zm12.69,3.055h-5.8V5.851h3.622a.161.161,0,0,1,.134.071Zm-6.1,0H32V5.851h2.53Zm0,2.606H32v-2.3h2.53Z" transform="translate(-19.924)"/><path class="b" d="M9.334,71.973a.151.151,0,0,0-.207-.138,2.646,2.646,0,0,1-3.341-.874.151.151,0,0,0-.117-.056h0a.151.151,0,0,0-.117.056,2.639,2.639,0,0,1-3.338.873.151.151,0,0,0-.207.137c-.061,3.1.632,6.293,3.621,7.148a.155.155,0,0,0,.041.006.152.152,0,0,0,.041-.006C8.7,78.27,9.379,75.075,9.334,71.973ZM8.7,75.307,3.354,77.056a5.78,5.78,0,0,1-.658-1.52l6.3-2.061A10.34,10.34,0,0,1,8.7,75.307ZM5.669,71.291a2.889,2.889,0,0,0,3.366.9c0,.341-.005.661-.02.959l-6.4,2.093a12.3,12.3,0,0,1-.314-3.052A2.886,2.886,0,0,0,5.669,71.291Zm0,7.527a3.977,3.977,0,0,1-2.136-1.5L8.6,75.656A4.339,4.339,0,0,1,5.669,78.818Z" transform="translate(0 -55.508)"/></g></g></g></svg>