<svg xmlns="http://www.w3.org/2000/svg" width="40.5" height="40.5" viewBox="0 0 40.5 40.5"><defs><style>.a{fill:#a8c2e5;}.b{fill:#080808;}</style></defs><g transform="translate(-466 -1970)"><g transform="translate(-392 -990)"><path class="a" d="M20.25,0A20.25,20.25,0,1,1,0,20.25,20.25,20.25,0,0,1,20.25,0Z" transform="translate(858 2960)"/><path class="b" d="M15.247,5.008a.29.29,0,0,0-.29.29V6.754H13.508a.29.29,0,0,0-.29.29V8.5H11.768a.29.29,0,0,0-.29.29v2.721q0,.01,0,.019L8.19,12.735a.291.291,0,0,0-.17.379l2.7,6.843a2.022,2.022,0,0,1-.534-.312.29.29,0,0,0-.368.449,2.6,2.6,0,0,0,3.1.142,2.6,2.6,0,0,0,2.9,0,2.592,2.592,0,0,0,2.9,0,2.6,2.6,0,0,0,3.113-.149.29.29,0,1,0-.37-.447,2.019,2.019,0,0,1-.512.3l2.686-6.759a.291.291,0,0,0-.168-.379l-3.29-1.239V8.789a.29.29,0,0,0-.29-.29h-1.45V7.045a.29.29,0,0,0-.29-.29H16.7V5.3a.29.29,0,0,0-.29-.29H15.247Zm.29.581h.58V6.717l-.58-.012ZM13.8,7.334h4.057V8.5H13.8ZM12.058,9.078h6.061a.289.289,0,0,0,.044,0h1.431v2.27L15.934,9.97a.279.279,0,0,0-.2,0h-.009l-.018.007-3.65,1.34Zm3.478,1.579v9.068a2.008,2.008,0,0,1-2.32.011.341.341,0,0,0-.567-.016,2.009,2.009,0,0,1-1.247.38L8.668,13.178Zm.58,0,6.868,2.586-2.719,6.843,0,.012a2.01,2.01,0,0,1-1.253-.366.338.338,0,0,0-.559-.017,2.009,2.009,0,0,1-2.333.022ZM12.945,20.731l-.034.006a.29.29,0,0,0-.283.162,2.016,2.016,0,0,1-2.441-.09.29.29,0,1,0-.368.448,2.6,2.6,0,0,0,3.1.142,2.6,2.6,0,0,0,2.9,0,2.592,2.592,0,0,0,2.9,0,2.6,2.6,0,0,0,3.113-.149.29.29,0,1,0-.37-.447,2.014,2.014,0,0,1-2.449.1.29.29,0,0,0-.272-.166l-.033.006a.29.29,0,0,0-.277.158,2.011,2.011,0,0,1-2.317.006.29.29,0,0,0-.272-.166l-.033.006a.29.29,0,0,0-.277.158,2.01,2.01,0,0,1-2.312.009.29.29,0,0,0-.272-.169Zm0,1.163a.431.431,0,0,0-.294.15,2.016,2.016,0,0,1-2.464-.074.29.29,0,0,0-.368.449,2.6,2.6,0,0,0,3.1.142,2.6,2.6,0,0,0,2.9,0,2.592,2.592,0,0,0,2.9,0,2.6,2.6,0,0,0,3.113-.149.291.291,0,1,0-.37-.448,2.014,2.014,0,0,1-2.447.1.339.339,0,0,0-.56-.022,2.009,2.009,0,0,1-2.338.022.34.34,0,0,0-.56-.022,2.01,2.01,0,0,1-2.334.026.29.29,0,0,0-.274-.171Z" transform="translate(862 2965.992)"/></g></g></svg>