<svg xmlns="http://www.w3.org/2000/svg" width="40.5" height="40.5" viewBox="0 0 40.5 40.5"><defs><style>.a{fill:#a1bbe0;}.b{stroke:#000;stroke-width:0.25px;}</style></defs><g transform="translate(-378 -1970)"><g transform="translate(-311 -990)"><g transform="translate(675 2932.663)"><path class="a" d="M20.25,0A20.25,20.25,0,1,1,0,20.25,20.25,20.25,0,0,1,20.25,0Z" transform="translate(14 27.337)"/><rect width="0.862" transform="translate(30.307 52.458)"/></g><g transform="translate(692 2963.005)"><path class="b" d="M17.281,7a.241.241,0,0,0-.188.188l-.264,1.3a4.384,4.384,0,0,0-.791.339l-1.122-.738a.241.241,0,0,0-.3.03c-.369.37-.76.744-1.138,1.123a.241.241,0,0,0-.03.3l.761,1.122a4.571,4.571,0,0,0-.331.791l-1.333.286a.241.241,0,0,0-.2.241v1.574a.241.241,0,0,0,.2.234l1.333.294a4.524,4.524,0,0,0,.331.783l-.761,1.123a.241.241,0,0,0,.03.309c.378.378.769.745,1.138,1.115a.241.241,0,0,0,.3.03l1.122-.731a4.417,4.417,0,0,0,.791.331l.264,1.3a.241.241,0,0,0,.234.2h1.6a.241.241,0,0,0,.233-.2l.264-1.3a4.417,4.417,0,0,0,.791-.331l1.123.731a.241.241,0,0,0,.3-.03c.369-.37.76-.736,1.137-1.115a.241.241,0,0,0,.03-.309l-.761-1.123a4.524,4.524,0,0,0,.331-.783l1.333-.294a.241.241,0,0,0,.2-.234V11.984a.241.241,0,0,0-.2-.241l-1.333-.286a4.571,4.571,0,0,0-.331-.791L22.8,9.543a.241.241,0,0,0-.03-.3C22.4,8.863,22,8.489,21.636,8.119a.241.241,0,0,0-.3-.03l-1.123.738a4.384,4.384,0,0,0-.791-.339l-.264-1.3A.241.241,0,0,0,18.924,7h-1.6A.237.237,0,0,0,17.281,7Zm.241.482h1.205l.249,1.235a.241.241,0,0,0,.173.181,3.911,3.911,0,0,1,.964.407.241.241,0,0,0,.256-.008L21.432,8.6c.286.282.578.559.859.836L21.575,10.5a.241.241,0,0,0-.008.256,4.091,4.091,0,0,1,.407.972.241.241,0,0,0,.181.173l1.266.279v1.175l-1.266.279a.241.241,0,0,0-.181.173,4.091,4.091,0,0,1-.407.972.241.241,0,0,0,.008.256l.716,1.062c-.281.277-.573.554-.859.836L20.37,16.24a.241.241,0,0,0-.256-.007,3.92,3.92,0,0,1-.964.407.241.241,0,0,0-.173.188l-.249,1.235H17.522l-.249-1.235a.241.241,0,0,0-.173-.188,3.92,3.92,0,0,1-.964-.407.24.24,0,0,0-.256.007l-1.062.693c-.286-.282-.578-.559-.859-.836l.716-1.062a.242.242,0,0,0,.007-.256,4.091,4.091,0,0,1-.407-.972.241.241,0,0,0-.181-.173l-1.266-.279V12.18l1.266-.279a.241.241,0,0,0,.181-.173,4.091,4.091,0,0,1,.407-.972.242.242,0,0,0-.007-.256l-.716-1.062c.281-.277.573-.554.859-.836l1.062.693a.241.241,0,0,0,.256.008A3.911,3.911,0,0,1,17.1,8.9a.241.241,0,0,0,.173-.181Zm.6,3.593a1.7,1.7,0,1,0,1.695,1.7A1.7,1.7,0,0,0,18.125,11.072Zm0,.482a1.213,1.213,0,1,1-1.213,1.213A1.213,1.213,0,0,1,18.125,11.554Zm8.965,5.153a1.114,1.114,0,0,0-.8.347l-.007.007c-.007.007-.667.661-1.379,1.371s-1.466,1.47-1.672,1.695a.241.241,0,1,0,.322.358.238.238,0,0,0,.032-.034c.17-.187.943-.966,1.657-1.68s1.386-1.379,1.386-1.379h.008a.613.613,0,0,1,.452-.2.733.733,0,0,1,.678.783.861.861,0,0,1-.166.512c-.008.01-2.906,3.494-4.776,5.68a3.172,3.172,0,0,1-2.4,1.281H14.7a2.127,2.127,0,0,0-1.59.535l-1.364,1.333a.241.241,0,1,0,.3.376.26.26,0,0,0,.036-.036l1.356-1.334a1.619,1.619,0,0,1,1.258-.392h5.718a3.673,3.673,0,0,0,2.772-1.454c1.877-2.195,4.791-5.688,4.791-5.688l.008-.015a1.336,1.336,0,0,0,.256-.8A1.217,1.217,0,0,0,27.09,16.707ZM14.373,20.3a4.219,4.219,0,0,0-2.772.776L8.09,23.955a.241.241,0,0,0,.3.377l3.518-2.878a3.756,3.756,0,0,1,2.464-.67h7.262a1.186,1.186,0,0,1-.03,1.168,1.127,1.127,0,0,1-.927.671l-.023-.008h-4.6a.241.241,0,1,0-.007.482h4.61a1.548,1.548,0,0,0,1.371-.919A1.637,1.637,0,0,0,21.99,20.4a.241.241,0,0,0-.188-.1Z" transform="translate(0 0)"/></g></g></g></svg>